<?xml version="1.0" encoding="utf-8"?><svg viewBox="0 0 100 100" xmlns="http://www.w3.org/2000/svg" version="1.1" width="128px" height="128px" style="width:100%;height:100%;background-size:initial;background-repeat-y:initial;background-repeat-x:initial;background-position-y:initial;background-position-x:initial;background-origin:initial;background-image:initial;background-color:rgb(71, 71, 71);background-clip:initial;background-attachment:initial" ><g class="ldl-scale" style="transform-origin:50% 50%;transform:rotate(0deg) scale(1, 1);" ><path fill="#fff" d="M50 14c-19.851 0-36 16.149-36 36 0 10.681 4.68 20.285 12.092 26.884 4.059-7.124 8.297-12.114 10.962-13.595-4.455-3.712-7.293-9.299-7.293-15.551C29.762 36.561 38.823 27.5 50 27.5s20.238 9.061 20.238 20.238c0 6.252-2.838 11.839-7.293 15.551 3.512 2.308 7.499 7.146 10.962 13.595C81.32 70.285 86 60.681 86 50c0-19.851-16.149-36-36-36z" style="fill:rgb(255, 255, 255);" ></path>
<metadata xmlns:d="https://loading.io/stock/"><d:name>user</d:name>
<d:tags>user,avatar,account,profile,customer,guest</d:tags>
<d:license>by</d:license>
<d:slug>v03iy3</d:slug></metadata></g><!-- generated by https://loading.io/ --></svg>
