<?xml version="1.0" encoding="utf-8"?>
<!-- Generator: Adobe Illustrator 21.0.0, SVG Export Plug-In . SVG Version: 6.00 Build 0)  -->
<svg version="1.1" id="Layer_1" xmlns="http://www.w3.org/2000/svg" xmlns:xlink="http://www.w3.org/1999/xlink" x="0px" y="0px"
	 viewBox="0 0 287 32" enable-background="new 0 0 287 32" xml:space="preserve">
<g>
	<g>
		<path fill="#55565A" d="M10.6794,4.08142H2.6599c-0.8369,0-1.6086-0.4518-2.0182-1.1817l-0.6487-1.156
			C-0.0936,1.58952,0.0179,1.399,0.1948,1.399h12.95c0.1769,0,0.2884,0.19052,0.2018,0.34482L12.6975,2.9
			C12.2879,3.62972,11.5163,4.08142,10.6794,4.08142z"/>
		<path fill="#55565A" d="M7.7794,1.72672H5.5599c-0.1278,0-0.2315,0.1036-0.2315,0.2314v28.7153
			c0,0.1278,0.1037,0.2315,0.2315,0.2315h2.2195c0.1278,0,0.2314-0.1037,0.2314-0.2315V1.95812
			C8.0108,1.83032,7.9072,1.72672,7.7794,1.72672z"/>
		<path fill="#FF3A1E" d="M22.8073,1.399h-2.2726c-0.1118,0-0.2076,0.07992-0.2276,0.18992l-5.3275,29.171
			c-0.0229,0.1256,0.108,0.223,0.2218,0.1652l1.6551-0.8414c0.6446-0.3276,1.099-0.93772,1.2283-1.6491l3.5862-19.7244
			l3.5863,19.7244c0.1293,0.71138,0.5837,1.3215,1.2282,1.6491l1.6552,0.8414c0.1137,0.0578,0.2445-0.0396,0.2216-0.1652
			l-5.3273-29.171C23.0149,1.47892,22.9191,1.399,22.8073,1.399z"/>
		<path fill="#55565A" d="M91.0293,1.399h-2.2727c-0.1117,0-0.2075,0.07992-0.2276,0.18992l-5.3275,29.171
			c-0.0229,0.1256,0.108,0.223,0.2218,0.1652l1.6552-0.8414c0.6445-0.3276,1.0989-0.93772,1.2282-1.6491l3.5862-19.7244
			l3.5863,19.7244c0.1293,0.71138,0.58369,1.3215,1.2282,1.6491l1.6552,0.8414c0.1138,0.0578,0.2445-0.0396,0.22169-0.1652
			l-5.3274-29.171C91.2368,1.47892,91.141,1.399,91.0293,1.399z"/>
		<path fill="#55565A" d="M36.8445,30.94212h-2.2194c-0.1279,0-0.2315-0.1036-0.2315-0.2314V1.63052
			c0-0.1278,0.1036-0.23152,0.2315-0.23152h2.2194c0.1279,0,0.2315,0.10372,0.2315,0.23152v29.0802
			C37.076,30.83852,36.9724,30.94212,36.8445,30.94212z"/>
		<g>
			<path fill="#55565A" d="M52.0985,30.90322c-3.7506,0.0634-6.8202-3.1055-6.8202-6.8566V8.25732
				c0-3.7511,3.0696-6.92,6.8202-6.8566c3.6444,0.0615,6.5902,3.04528,6.5902,6.70428v3.77382c0,0.1147-0.1207,0.1893-0.2233,0.138
				L57.2866,11.427c-0.7838-0.39208-1.2789-1.19328-1.2789-2.06968v-1.1356c0-2.1643-1.6598-4.0293-3.8214-4.1359
				c-2.3106-0.114-4.2269,1.7331-4.2269,4.01918v15.97722c0,2.1643,1.6598,4.0293,3.8214,4.1359
				c2.3106,0.114,4.2269-1.73312,4.2269-4.0192v-6.4562c0-0.11472,0.1207-0.1893,0.2233-0.138l1.1789,0.5898
				c0.7838,0.3921,1.2788,1.1934,1.2788,2.0698v3.9346C58.6887,27.85792,55.7429,30.84172,52.0985,30.90322z"/>
		</g>
		<g>
			<path fill="#55565A" d="M71.8187,30.90322c-3.7506,0.0634-6.82021-3.1055-6.82021-6.8566V8.25732
				c0-3.7511,3.0696-6.92,6.82021-6.8566C75.4631,1.46222,78.4089,4.446,78.4089,8.105v3.77382c0,0.1147-0.1207,0.1893-0.2233,0.138
				L77.0068,11.427c-0.7838-0.39208-1.2789-1.19328-1.2789-2.06968v-1.1356c0-2.1643-1.6598-4.0293-3.8214-4.1359
				c-2.3106-0.114-4.2269,1.7331-4.2269,4.01918v15.97722c0,2.1643,1.6598,4.0293,3.8214,4.1359
				c2.3106,0.114,4.2269-1.73312,4.2269-4.0192v-6.4562c0-0.11472,0.1207-0.1893,0.2233-0.138l1.17889,0.5898
				c0.78381,0.3921,1.2788,1.1934,1.2788,2.0698v3.9346C78.4089,27.85792,75.4631,30.84172,71.8187,30.90322z"/>
		</g>
	</g>
	<g>
		<g>
			<path fill="#55565A" d="M114.9305,25.33562h-1.8756v5.102h-1.2617v-5.102h-1.85049v-1.0213h4.98779V25.33562z"/>
			<path fill="#55565A" d="M119.4545,29.17592h-2.2121l-0.4206,1.2617h-1.3422l2.2806-6.1233h1.168l2.2926,6.1233h-1.3409
				L119.4545,29.17592z M117.5824,28.15462h1.5308l-0.769-2.2927L117.5824,28.15462z"/>
			<path fill="#55565A" d="M123.9869,30.43762h-1.2617v-6.1233h1.2617V30.43762z"/>
			<path fill="#55565A" d="M130.77831,28.67132l0.8243-4.357h1.25681l-1.35771,6.1233h-1.27019l-0.99611-4.0963l-0.9973,4.0963
				h-1.2701l-1.359-6.1233h1.2581l0.8279,4.3485l1.0093-4.3485h1.0694L130.77831,28.67132z"/>
			<path fill="#55565A" d="M137.67059,29.17592h-2.21329l-0.42061,1.2617h-1.341l2.2794-6.1233h1.1692l2.29269,6.1233h-1.34219
				L137.67059,29.17592z M135.79849,28.15462h1.53081l-0.769-2.2927L135.79849,28.15462z"/>
			<path fill="#55565A" d="M145.84019,30.43762h-1.26169l-2.45601-4.0289v4.0289h-1.2616v-6.1233h1.2616l2.45961,4.0374v-4.0374
				h1.25809V30.43762z"/>
			<path fill="#55565A" d="M155.59959,28.39732c-0.04689,0.65968-0.29089,1.1775-0.7294,1.5573
				c-0.43979,0.3772-1.01649,0.5671-1.73509,0.5671c-0.7858,0-1.4035-0.2644-1.85291-0.793
				c-0.4494-0.5288-0.67529-1.2533-0.67529-2.1761v-0.3737c0-0.5888,0.1046-1.10792,0.3125-1.5573
				c0.2066-0.4482,0.5034-0.7918,0.8891-1.0322c0.3846-0.239,0.83389-0.3592,1.3434-0.3592c0.7066,0,1.27609,0.18978,1.7075,0.5671
				c0.43129,0.3798,0.68129,0.9109,0.74849,1.5946h-1.26169c-0.03111-0.3954-0.14171-0.6825-0.32921-0.8604
				c-0.1898-0.1778-0.4782-0.2668-0.8651-0.2668c-0.4205,0-0.7354,0.1502-0.9445,0.4518
				c-0.20909,0.3016-0.31599,0.769-0.32199,1.4023v0.4638c0,0.6608,0.10089,1.1452,0.3004,1.4503
				c0.20189,0.3052,0.51669,0.4579,0.9493,0.4579c0.38921,0,0.6801-0.089,0.8723-0.26682
				c0.19231-0.17778,0.3029-0.453,0.33051-0.82668H155.59959z"/>
			<path fill="#55565A" d="M159.54671,28.19542h-1.0045v2.2422h-1.2617v-6.1233h2.27589c0.7234,0,1.28081,0.161,1.67261,0.483
				c0.3929,0.3232,0.58879,0.77868,0.58879,1.3675c0,0.4181-0.09019,0.7665-0.2704,1.0453
				c-0.1814,0.2788-0.4554,0.5011-0.82309,0.6657l1.32539,2.5029v0.0589h-1.3542L159.54671,28.19542z M158.54221,27.174H159.56
				c0.3159,0,0.5623-0.08048,0.7366-0.24148c0.173-0.161,0.25951-0.3833,0.25951-0.6669c0-0.2883-0.08171-0.5154-0.24521-0.6812
				c-0.16451-0.1658-0.4157-0.2488-0.7545-0.2488h-1.01419V27.174z"/>
			<path fill="#55565A" d="M167.3139,27.78452h-2.4225v1.6389h2.843v1.0142h-4.10471v-6.1233h4.09621v1.0213h-2.8345v1.46h2.4225
				V27.78452z"/>
			<path fill="#55565A" d="M172.7847,29.17592h-2.2122l-0.4205,1.2617H168.811l2.2782-6.1233h1.17039l2.2914,6.1233h-1.3421
				L172.7847,29.17592z M170.9138,28.15462h1.5309l-0.77031-2.2927L170.9138,28.15462z"/>
			<path fill="#55565A" d="M180.07961,25.33562h-1.87451v5.102h-1.26169v-5.102h-1.8504v-1.0213h4.9866V25.33562z"/>
			<path fill="#55565A" d="M182.99339,30.43762h-1.26169v-6.1233h1.26169V30.43762z"/>
			<path fill="#55565A" d="M187.27699,28.91882l1.38911-4.6045h1.40349l-2.1317,6.1233H186.621l-2.1232-6.1233h1.3998
				L187.27699,28.91882z"/>
			<path fill="#55565A" d="M195.18359,27.78452h-2.4225v1.6389h2.843v1.0142h-4.1046v-6.1233h4.0961v1.0213h-2.8345v1.46h2.4225
				V27.78452z"/>
			<path fill="#55565A" d="M205.0006,28.39732c-0.04689,0.65968-0.2908,1.1775-0.7294,1.5573
				c-0.43869,0.3772-1.0166,0.5671-1.73399,0.5671c-0.7858,0-1.4034-0.2644-1.8528-0.793
				c-0.4505-0.5288-0.67531-1.2533-0.67531-2.1761v-0.3737c0-0.5888,0.10341-1.10792,0.31131-1.5573
				c0.20779-0.4482,0.5034-0.7918,0.8891-1.0322c0.3857-0.239,0.83389-0.3592,1.3445-0.3592
				c0.7066,0,1.27499,0.18978,1.70641,0.5671c0.4325,0.3798,0.6825,0.9109,0.74969,1.5946h-1.2616
				c-0.03131-0.3954-0.1418-0.6825-0.33051-0.8604c-0.1898-0.1778-0.47701-0.2668-0.864-0.2668
				c-0.4205,0-0.73531,0.1502-0.94431,0.4518c-0.20909,0.3016-0.3172,0.769-0.3221,1.4023v0.4638
				c0,0.6608,0.10091,1.1452,0.3004,1.4503c0.2007,0.3052,0.51671,0.4579,0.9492,0.4579c0.3894,0,0.68021-0.089,0.8725-0.26682
				c0.19211-0.17778,0.3015-0.453,0.32921-0.82668H205.0006z"/>
			<path fill="#55565A" d="M211.7126,27.51532c0,0.602-0.1069,1.13068-0.3197,1.5849c-0.21381,0.4542-0.519,0.8051-0.9155,1.0515
				c-0.39661,0.2462-0.85071,0.37-1.36501,0.37c-0.5071,0-0.959-0.1225-1.35789-0.3653
				c-0.3989-0.2451-0.70641-0.59242-0.9252-1.04542c-0.2187-0.45288-0.32919-0.97318-0.3316-1.562v-0.30278
				c0-0.60322,0.10811-1.1343,0.32451-1.5921c0.2186-0.45912,0.52499-0.81112,0.9227-1.0562
				c0.39659-0.2452,0.84959-0.3677,1.36029-0.3677c0.5094,0,0.96361,0.1225,1.3602,0.3677
				c0.39641,0.24508,0.7041,0.59708,0.92041,1.0562c0.21739,0.4578,0.3268,0.9876,0.3268,1.5873V27.51532z M210.4341,27.23662
				c0-0.6417-0.1154-1.1295-0.3461-1.46362c-0.2294-0.33278-0.5575-0.49978-0.9828-0.49978c-0.42419,0-0.7498,0.1646-0.98059,0.4939
				c-0.2307,0.3292-0.34601,0.8122-0.3484,1.449v0.2992c0,0.6248,0.11411,1.1103,0.3436,1.454
				c0.2307,0.346,0.5612,0.5178,0.9926,0.5178c0.4241,0,0.74971-0.1658,0.9756-0.4987c0.22841-0.3316,0.3425-0.8158,0.3461-1.4526
				V27.23662z"/>
			<path fill="#55565A" d="M218.4608,30.43762h-1.2617l-2.4561-4.0289v4.0289h-1.2617v-6.1233h1.2617l2.46091,4.0374v-4.0374h1.2569
				V30.43762z"/>
			<path fill="#55565A" d="M224.9037,25.33562h-1.87691v5.102h-1.26169v-5.102h-1.85051v-1.0213h4.98911V25.33562z"/>
			<path fill="#55565A" d="M230.15939,27.78452H227.737v1.6389h2.843v1.0142h-4.10471v-6.1233h4.095v1.0213h-2.8333v1.46h2.42239
				V27.78452z"/>
			<path fill="#55565A" d="M237.1526,30.43762h-1.2616l-2.45601-4.0289v4.0289h-1.2617v-6.1233h1.2617l2.45961,4.0374v-4.0374h1.258
				V30.43762z"/>
			<path fill="#55565A" d="M243.5932,25.33562h-1.8745v5.102h-1.2617v-5.102h-1.8504v-1.0213h4.9866V25.33562z"/>
			<path fill="#55565A" d="M251.36749,29.17592h-2.21219l-0.4205,1.2617h-1.34221l2.2807-6.1233h1.16791l2.29269,6.1233h-1.34109
				L251.36749,29.17592z M249.4955,28.15462h1.53081l-0.7691-2.2927L249.4955,28.15462z"/>
			<path fill="#55565A" d="M259.31479,29.66382c-0.22589,0.2715-0.54788,0.483-0.96249,0.63318
				c-0.41449,0.15022-0.87469,0.22472-1.37939,0.22472c-0.52991,0-0.9937-0.1153-1.395-0.3472
				c-0.399-0.2307-0.70659-0.5672-0.92529-1.007c-0.21631-0.4397-0.328-0.9577-0.334-1.5512v-0.417
				c0-0.6116,0.1033-1.14032,0.31-1.58732c0.2066-0.447,0.5022-0.78938,0.8916-1.02608
				c0.38809-0.2367,0.84351-0.3557,1.36499-0.3557c0.7258,0,1.293,0.173,1.7027,0.5191s0.6524,0.8506,0.7269,1.5115h-1.228
				c-0.0553-0.3496-0.1803-0.6067-0.3725-0.769c-0.19101-0.1622-0.45551-0.2439-0.79181-0.2439
				c-0.42899,0-0.75589,0.161-0.97928,0.4843c-0.2247,0.322-0.33891,0.8014-0.34131,1.4371v0.3916
				c0,0.6418,0.1226,1.1272,0.3653,1.4552c0.24512,0.328,0.60202,0.4915,1.073,0.4915c0.47461,0,0.8111-0.101,1.01291-0.3029
				v-1.0549h-1.14749v-0.9301h2.40918V29.66382z"/>
			<path fill="#55565A" d="M264.87341,27.78452h-2.42242v1.6389h2.84293v1.0142h-4.10461v-6.1233h4.0975v1.0213h-2.83582v1.46
				h2.42242V27.78452z"/>
			<path fill="#55565A" d="M271.86661,30.43762h-1.26172l-2.45599-4.0289v4.0289h-1.26169v-6.1233h1.26169l2.46082,4.0374v-4.0374
				h1.2569V30.43762z"/>
			<path fill="#55565A" d="M278.6279,28.39732c-0.04681,0.65968-0.29071,1.1775-0.72931,1.5573
				c-0.43979,0.3772-1.01648,0.5671-1.73508,0.5671c-0.78583,0-1.40341-0.2644-1.85281-0.793
				c-0.44949-0.5288-0.67538-1.2533-0.67538-2.1761v-0.3737c0-0.5888,0.10458-1.10792,0.31238-1.5573
				c0.20682-0.4482,0.50351-0.7918,0.88931-1.0322c0.3844-0.239,0.8338-0.3592,1.34329-0.3592
				c0.70651,0,1.27609,0.18978,1.70749,0.5671c0.43143,0.3798,0.6813,0.9109,0.74863,1.5946h-1.26172
				c-0.03128-0.3954-0.14178-0.6825-0.32919-0.8604c-0.18979-0.1778-0.47821-0.2668-0.8652-0.2668
				c-0.4205,0-0.73529,0.1502-0.9444,0.4518s-0.3161,0.769-0.32211,1.4023v0.4638c0,0.6608,0.10101,1.1452,0.30042,1.4503
				c0.2019,0.3052,0.51669,0.4579,0.94931,0.4579c0.38928,0,0.68008-0.089,0.87228-0.26682
				c0.19229-0.17778,0.30292-0.453,0.33051-0.82668H278.6279z"/>
			<path fill="#55565A" d="M282.4213,27.07322l1.2738-2.7589h1.37939l-2.01028,3.9028v2.2205h-1.28201v-2.2205l-2.01151-3.9028
				h1.38422L282.4213,27.07322z"/>
		</g>
		<g>
			<g>
				<path fill="#55565A" d="M123.9052,5.53732h-2.1197c-0.7785,2.1244-1.86,3.9411-3.2442,5.4503
					c1.55721,1.2017,3.4317,2.0476,5.62341,2.5379c-0.48061,0.4806-0.8988,1.0669-1.2544,1.7591
					c-2.2782-0.5768-4.2248-1.5477-5.8398-2.9127c-1.58601,1.2593-3.50861,2.2446-5.7676,2.9559
					c-0.2499-0.5672-0.6152-1.1391-1.0958-1.71582c2.2301-0.58638,4.0709-1.43718,5.5224-2.55218
					c-1.2785-1.4612-2.3263-3.302-3.1433-5.5225h-2.1196v-1.7159h5.7965v-2.3215h1.7735v2.3215h5.8686V5.53732z M119.7092,5.53732
					h-5.16199c0.6344,1.6341,1.50919,3.0376,2.6243,4.2103C118.2289,8.60382,119.0748,7.20022,119.7092,5.53732z"/>
				<path fill="#55565A" d="M140.8331,1.68732l1.7448,0.5769c-0.42299,0.9804-0.93719,1.9753-1.5428,2.9846v10.007H139.276V7.729
					c-0.4615,0.55762-0.94701,1.07662-1.45641,1.55732c-0.3076-0.7402-0.64879-1.36032-1.02379-1.8602
					c0.8075-0.6825,1.5741-1.5332,2.2999-2.5522C139.8214,3.85512,140.4006,2.79282,140.8331,1.68732z M146.2692,13.46782h2.1629
					c0.34601,0,0.57671-0.1635,0.692-0.4902c0.1154-0.3269,0.2019-1.0238,0.2596-2.0909
					c0.49991,0.3749,1.03821,0.6249,1.6149,0.7498c-0.1057,1.3073-0.32199,2.2134-0.6488,2.7181
					c-0.3268,0.5046-0.91319,0.757-1.75919,0.757h-2.52321c-0.9325,0-1.56459-0.1875-1.89619-0.5624
					c-0.3316-0.3749-0.4975-1.0814-0.4975-2.1196V1.87482h1.77359v5.0611c1.3746-0.7883,2.6147-1.6534,3.7202-2.5954l1.3121,1.5428
					c-1.25929,0.9036-2.9368,1.8505-5.0323,2.8406V12.444c0,0.43262,0.048,0.71142,0.14421,0.83632
					C145.68761,13.40532,145.9135,13.46782,146.2692,13.46782z"/>
				<path fill="#55565A" d="M176.8665,4.77312v8.464c0,0.4902-0.0625,0.8675-0.18741,1.13188
					c-0.12509,0.26432-0.34129,0.46862-0.6489,0.61282c-0.4326,0.19218-1.37469,0.2883-2.8262,0.2883
					c-0.06729-0.5574-0.25949-1.1487-0.57669-1.7735c0.5383,0.0193,1.23039,0.0289,2.07629,0.0289
					c0.2404,0,0.3605-0.1058,0.3605-0.3173v-2.6531c-0.4422,0.4806-0.7738,0.9036-0.9949,1.26888
					c-1.4612-0.846-2.5186-2.17238-3.1722-3.97968c-0.673,1.9033-1.7928,3.2684-3.35971,4.095
					c-0.2114-0.346-0.48059-0.6968-0.80739-1.0526v4.3979h-1.78801V4.77312h5.2341c-0.02879-0.2692-0.06239-0.6489-0.10089-1.13912
					h-2.4946V2.10552h4.00859c0.0289,0.8267,0.1154,1.7159,0.2596,2.6676H176.8665z M166.7299,6.48892v3.85
					c1.4034-0.7691,2.35989-2.0523,2.8694-3.85H166.7299z M175.0641,6.48892h-2.81171c0.5479,1.7303,1.48511,2.9607,2.81171,3.6913
					V6.48892z"/>
				<path fill="#55565A" d="M196.7925,6.40242h1.7735c0.76901,0.9324,1.6895,1.7568,2.76131,2.4729
					c1.0717,0.7161,2.18449,1.26168,3.338,1.6366c-0.298,0.3364-0.65849,0.8699-1.0815,1.6005
					c-0.57671-0.25-1.12939-0.5239-1.6582-0.8219v3.9796h-1.7879v-0.4037h-4.8593v0.4182h-1.7014v-3.8643
					c-0.5479,0.3268-1.08629,0.6008-1.6149,0.8219c-0.27879-0.5576-0.6105-1.0526-0.9949-1.4853
					c1.1727-0.4614,2.2926-1.0982,3.3596-1.9104C195.3938,8.03422,196.2157,7.21952,196.7925,6.40242z M193.13,4.26842v1.5861
					h-1.71591v-3.1722h5.33511v-1.1824h1.80229v1.1824h5.4505v3.1722h-1.8024v-1.5861H193.13z M195.0334,4.55672l1.687,0.5769
					c-0.4518,0.644-1.0166,1.264-1.69431,1.86c-0.67769,0.596-1.36739,1.0959-2.06909,1.4996
					c-0.3076-0.4711-0.7113-0.93722-1.2112-1.3986C193.1973,6.43122,194.2932,5.58532,195.0334,4.55672z M195.2784,13.32362h4.8593
					v-1.5718h-4.8593V13.32362z M195.3938,10.22352h4.85921c-1.0574-0.7402-1.88881-1.4852-2.49451-2.235
					C197.15289,8.76712,196.36459,9.51212,195.3938,10.22352z M198.5948,5.55172l1.2401-1.0238
					c1.71111,1.019,2.951,1.9178,3.72009,2.6964l-1.34099,1.1536c-0.36531-0.4038-0.89391-0.8724-1.58611-1.40592
					C199.93581,6.43852,199.2581,5.965,198.5948,5.55172z"/>
				<path fill="#55565A" d="M230.2303,7.87322v2.5233c0,0.3749-0.0481,0.6609-0.1442,0.8579
					c-0.0961,0.1971-0.274,0.3485-0.53351,0.4542c-0.38449,0.1538-1.0381,0.2307-1.961,0.2307
					c1.2112,0.6249,2.5282,1.0622,3.95081,1.3122c-0.4518,0.471-0.81711,0.9853-1.09581,1.5428
					c-1.7784-0.4517-3.3741-1.2496-4.7872-2.3936V15.299h-1.88879v-2.94148c-1.3362,1.1632-2.9704,2.009-4.9025,2.5378
					c-0.28841-0.5479-0.6537-1.03832-1.09581-1.4708c1.23991-0.2499,2.3959-0.6417,3.46771-1.1752
					c1.07179-0.5334,1.9153-1.1511,2.53059-1.8528v-1.0382h-2.8262v2.6243h-1.86v-4.1094h4.6862v-0.7066h-5.6235v-1.514h3.129
					c-0.1442-0.4325-0.39899-0.9468-0.7643-1.5428h-0.2451c-0.37489,0.5479-0.78339,1.0381-1.22559,1.4707
					c-0.48071-0.38452-0.96611-0.7017-1.45631-0.9516c0.97081-0.8075,1.7207-1.8841,2.24931-3.22992l1.6727,0.447
					c-0.13461,0.32682-0.25481,0.596-0.3605,0.80742h3.201v1.2113c0.5768-0.6633,1.043-1.4852,1.3987-2.46572l1.7303,0.41822
					c-0.1058,0.2787-0.22591,0.5575-0.3605,0.8362h4.10941v1.4564h-2.408c0.25951,0.4517,0.4326,0.793,0.5192,1.0238
					l-1.57179,0.4902c-0.1057-0.3846-0.35561-0.8891-0.74971-1.514h-0.70659c-0.173,0.2787-0.3893,0.5623-0.64891,0.8508v0.692
					h5.3063v1.514h-5.3063v0.7066H230.2303z M221.47791,5.65262h2.29269v-0.7787h0.2451
					c-0.0961-0.0576-0.2451-0.1441-0.44701-0.2595c0.125-0.0961,0.3076-0.2643,0.5479-0.5046h-1.81679
					c0.27879,0.5383,0.44699,0.8844,0.5047,1.0381L221.47791,5.65262z M225.65939,9.35832v1.3121
					c0.4711,0.4134,1.0863,0.8219,1.8457,1.2257c-0.0865-0.3364-0.27879-0.7787-0.57669-1.3266
					c0.2211,0.0193,0.63919,0.0289,1.25439,0.0289c0.15379,0,0.2307-0.0673,0.2307-0.2019v-1.0382H225.65939z"/>
				<path fill="#55565A" d="M247.937,7.22432v4.715c0.5287,0.9132,1.5668,1.39868,3.1145,1.4563
					c2.4704,0.0962,4.9025,0.0529,7.29601-0.1297c-0.25949,0.5383-0.44211,1.1103-0.54791,1.7159
					c-2.39349,0.1153-4.6478,0.1298-6.7625,0.0433c-0.90369-0.0385-1.65819-0.1827-2.2639-0.4327
					c-0.60559-0.2498-1.12459-0.6537-1.55719-1.2111c-0.65361,0.6344-1.30251,1.2256-1.94661,1.7735l-0.8219-1.7447
					c0.68251-0.4422,1.293-0.894,1.8313-1.3554v-3.2155h-1.65829v-1.6149H247.937z M248.3407,4.21072l-1.442,1.11028
					c-0.42279-0.721-1.1631-1.53808-2.22049-2.45128l1.34099-1.0093C247.09579,2.73512,247.86971,3.51862,248.3407,4.21072z
					 M249.4942,12.29982v-5.6522c-0.2403,0.2499-0.5047,0.5046-0.793,0.7642c-0.125-0.173-0.3221-0.4037-0.5912-0.6922
					c-0.2691-0.2884-0.49989-0.5191-0.69211-0.6921c0.67281-0.519,1.30011-1.1752,1.88161-1.9682
					c0.5816-0.7931,1.0406-1.6318,1.377-2.5161l1.7448,0.5046c-0.125,0.3173-0.37979,0.8363-0.76419,1.5573h1.687
					c0.25951-0.6922,0.46629-1.3409,0.62-1.9466l1.93221,0.3749c-0.173,0.3653-0.43741,0.8892-0.79311,1.5717h2.60991v1.4852
					h-2.9127v0.9228h2.52339v1.413h-2.52339v0.9806h2.46571v1.413h-2.46571v1.0094h3.1722v1.4707H249.4942z M253.1134,6.01312
					v-0.9228h-1.91771v0.9228H253.1134z M253.1134,8.40672v-0.9806h-1.91771v0.9806H253.1134z M253.1134,10.82912v-1.0094h-1.91771
					v1.0094H253.1134z"/>
				<path fill="#55565A" d="M275.40411,2.06232l1.15347,0.6633c-0.67288,2.17238-1.10068,3.5086-1.28329,4.0085
					c0.72101,0.9227,1.08151,1.91288,1.08151,2.9702c0,0.9518-0.2164,1.5814-0.6489,1.889
					c-0.2211,0.1538-0.50952,0.2595-0.86511,0.3172c-0.27881,0.0288-0.59119,0.0384-0.93729,0.0288
					c-0.0192-0.5671-0.1489-1.0669-0.38931-1.4996c0.173,0.0097,0.38931,0.0145,0.6489,0.0145
					c0.18262-0.0193,0.32202-0.0625,0.41821-0.1298c0.1441-0.1057,0.21619-0.3797,0.21619-0.8219
					c0-0.9132-0.33649-1.7783-1.00928-2.5954c0.25949-0.8555,0.5383-1.9274,0.83627-3.2155h-1.1535v11.593h-1.5141V2.13442h3.20111
					L275.40411,2.06232z M282.93079,13.59752h0.47592c0.1153,0,0.19458-0.1033,0.23788-0.31
					c0.0433-0.2066,0.0697-0.6752,0.07932-1.4058c0.16339,0.1249,0.38928,0.2499,0.6777,0.3748
					c0.28839,0.125,0.54788,0.2164,0.77869,0.274c-0.06738,1.019-0.2139,1.7111-0.43979,2.0764
					c-0.22592,0.3653-0.60321,0.5479-1.13202,0.5479h-0.9949c-0.62479,0-1.0405-0.14182-1.24719-0.4253
					c-0.2066-0.2836-0.31009-0.8099-0.31009-1.5789v-3.2155h-1.09579c-0.048,0.721-0.12982,1.3338-0.24512,1.8385
					c-0.11539,0.5045-0.30521,0.9901-0.56949,1.4563c-0.2644,0.46608-0.63211,0.8627-1.10312,1.1895
					c-0.47098,0.3269-1.05737,0.6105-1.75909,0.8507c-0.06729-0.2018-0.19699-0.4398-0.38928-0.7137
					c-0.19232-0.274-0.37491-0.4926-0.54791-0.6561c1.10532-0.3267,1.85519-0.7882,2.2493-1.3842
					c0.3942-0.596,0.6297-1.4563,0.7066-2.581H276.673v-1.5572h8.23331v1.5572h-2.22052v3.201
					c0,0.2115,0.01431,0.3413,0.04321,0.3894C282.75781,13.57362,282.8252,13.59752,282.93079,13.59752z M276.4567,3.10042h3.28751
					v-1.5428h1.70151v1.5428h3.53259v2.8983h-1.1391v1.3121h-6.28671v-1.2977h-1.09579V3.10042z M283.36349,5.81122V4.6h-5.33508
					v1.21122H283.36349z"/>
			</g>
		</g>
	</g>
</g>
</svg>
