<?xml version="1.0" encoding="utf-8"?>
<svg xmlns="http://www.w3.org/2000/svg" width="100" height="100" style="width: 100px; height: 100px; shape-rendering: auto;"><path></path><g class="layer" transform="matrix(1 0 0 1 0 0) matrix(1 0 0 1 0 0)"><g class="ani" style="transform-origin: 50px 50px; transform: scale(0.92); animation: 1.1236s linear 0s infinite normal forwards running breath-97b94511-ac30-481a-9de0-6e0efc28eb8f;"><g><g class="layer" transform="matrix(1 0 0 1 0 0) matrix(1 0 0 1 0 0)"><g class="ani"><path fill="#67C5AD" d="M46.6,59.7L15,40.1v34.8c0,1,0.8,1.8,1.8,1.8h66.4c1,0,1.8-0.8,1.8-1.8V40.1L53.4,59.7
	C51.3,61,48.7,61,46.6,59.7z" style="fill: rgb(103, 197, 173);"></path></g></g><g class="layer" transform="matrix(1 0 0 1 0 0) matrix(1 0 0 1 0 0)"><g class="ani"><path fill="#67C5AD" d="M83.2,23.3H16.8c-1,0-1.8,0.8-1.8,1.8v3.5c0,3.4,1.8,6.6,4.7,8.5l26.9,16.7c2.1,1.3,4.7,1.3,6.8,0l26.9-16.7
	c2.9-1.8,4.7-5,4.7-8.5v-3.5C85,24.1,84.2,23.3,83.2,23.3z" style="fill: rgb(103, 197, 173);"></path></g></g></g></g></g><g class="layer" transform="matrix(1 0 0 1 0 0) matrix(1 0 0 1 0 0)"><g class="ani" style="transform-origin: 52.0424px 49.65px; animation: 0.512821s linear 0s infinite normal forwards running static-6db54556-ea59-4fe5-b79d-cf775be5df58;"><g><g class="layer" transform="matrix(1 0 0 1 0 0) matrix(1 0 0 1 0 0)"><g class="ani" style="transform-origin: 30.6px 31.75px; transform: scale(1); animation: 0.25s linear -0.12375s infinite normal forwards running pulse-4d5f2d60-8f6c-4f59-a9e6-ce22b61ceb3b;"><g><g class="layer" transform="matrix(1 0 0 1 0 0) matrix(1 0 0 1 0 0)"><g class="ani" style="transform-origin: 30.6px 31.75px; opacity: 1; animation: 0.512821s linear -0.253846s infinite normal forwards running blink-da39121d-4ebf-419e-b327-6665735e64da;"><path fill="#FFDC6D" d="M49.6,30.8l-7.2-0.5c-5.6-0.4-10-4.8-10.3-10.4l-0.5-8.3c0-0.5-0.5-0.9-1-0.9h-0.2c-0.5,0-0.9,0.4-1,0.9
	L29,19.9c-0.3,5.6-4.7,10-10.3,10.4l-7.2,0.5c-0.5,0-0.9,0.4-0.9,0.8c-0.1,0.6,0.3,1.1,0.9,1.1l7.2,0.5c5.6,0.4,10,4.8,10.3,10.4
	l0.5,8.3c0,0.5,0.5,0.9,1,0.9h0.2c0.5,0,0.9-0.4,1-0.9l0.5-8.3c0.3-5.6,4.7-10,10.3-10.4l7.2-0.5c0.6,0,1-0.6,0.9-1.1
	C50.5,31.2,50,30.9,49.6,30.8z" style="fill: rgb(255, 220, 109);"></path></g></g></g></g></g><g class="layer" transform="matrix(1 0 0 1 0 0) matrix(1 0 0 1 0 0)"><g class="ani" style="transform-origin: 63.1098px 76.45px; transform: scale(1); animation: 0.25s linear -0.0825s infinite normal forwards running pulse-4d5f2d60-8f6c-4f59-a9e6-ce22b61ceb3b;"><g><g class="layer" transform="matrix(1 0 0 1 0 0) matrix(1 0 0 1 0 0)"><g class="ani" style="transform-origin: 63.1098px 76.45px; opacity: 1; animation: 0.512821s linear -0.169231s infinite normal forwards running blink-da39121d-4ebf-419e-b327-6665735e64da;"><path fill="#FFDC6D" d="M74.2,75.9L70,75.6c-3.2-0.2-5.8-2.8-6-6l-0.3-4.8c0-0.3-0.3-0.5-0.6-0.5h-0.1c-0.3,0-0.5,0.2-0.6,0.5
	l-0.3,4.8c-0.2,3.2-2.8,5.8-6,6l-4.2,0.3c-0.3,0-0.5,0.2-0.5,0.5C51.5,76.7,51.7,77,52,77l4.2,0.3c3.2,0.2,5.8,2.8,6,6l0.3,4.8
	c0,0.3,0.3,0.5,0.6,0.5h0.1c0.3,0,0.5-0.2,0.6-0.5l0.3-4.8c0.2-3.2,2.8-5.8,6-6l4.2-0.3c0.3,0,0.6-0.3,0.5-0.7
	C74.7,76.1,74.5,75.9,74.2,75.9z" style="fill: rgb(255, 220, 109);"></path></g></g></g></g></g><g class="layer" transform="matrix(1 0 0 1 0 0) matrix(1 0 0 1 0 0)"><g class="ani" style="transform-origin: 78.4904px 45.25px; transform: scale(1); animation: 0.25s linear -0.04125s infinite normal forwards running pulse-4d5f2d60-8f6c-4f59-a9e6-ce22b61ceb3b;"><g><g class="layer" transform="matrix(1 0 0 1 0 0) matrix(1 0 0 1 0 0)"><g class="ani" style="transform-origin: 78.4904px 45.25px; opacity: 1; animation: 0.512821s linear -0.0846154s infinite normal forwards running blink-da39121d-4ebf-419e-b327-6665735e64da;"><path fill="#FFDC6D" d="M92.8,44.5l-5.4-0.4c-4.2-0.3-7.5-3.7-7.7-8l-0.4-6.4c0-0.4-0.3-0.7-0.7-0.7h-0.2c-0.4,0-0.7,0.3-0.7,0.7
	l-0.4,6.4c-0.3,4.3-3.6,7.7-7.7,8l-5.4,0.4c-0.3,0-0.6,0.3-0.7,0.6c-0.1,0.4,0.2,0.8,0.7,0.9l5.4,0.4c4.2,0.3,7.5,3.7,7.7,8l0.4,6.4
	c0,0.4,0.3,0.7,0.7,0.7h0.2c0.4,0,0.7-0.3,0.7-0.7l0.4-6.4c0.3-4.3,3.6-7.7,7.7-8l5.4-0.4c0.4,0,0.7-0.4,0.7-0.9
	C93.4,44.8,93.1,44.5,92.8,44.5z" style="fill: rgb(255, 220, 109);"></path></g></g></g></g></g><g class="layer" transform="matrix(1 0 0 1 0 0) matrix(1 0 0 1 0 0)"><g class="ani" style="transform-origin: 27.15px 72.75px; transform: scale(1); animation: 0.25s linear 0s infinite normal forwards running pulse-4d5f2d60-8f6c-4f59-a9e6-ce22b61ceb3b;"><g><g class="layer" transform="matrix(1 0 0 1 0 0) matrix(1 0 0 1 0 0)"><g class="ani" style="transform-origin: 27.15px 72.75px; opacity: 1; animation: 0.512821s linear 0s infinite normal forwards running blink-da39121d-4ebf-419e-b327-6665735e64da;"><path fill="#FFDC6D" d="M34.7,72.3l-2.9-0.2c-2.2-0.2-4-1.9-4.1-4.2l-0.2-3.3c0-0.2-0.2-0.4-0.4-0.4H27c-0.2,0-0.4,0.2-0.4,0.4
	L26.5,68c-0.1,2.2-1.9,4-4.1,4.2l-2.9,0.2c-0.2,0-0.3,0.1-0.4,0.3c0,0.2,0.1,0.4,0.4,0.5l2.9,0.2c2.2,0.2,4,1.9,4.1,4.2l0.2,3.3
	c0,0.2,0.2,0.4,0.4,0.4h0.1c0.2,0,0.4-0.2,0.4-0.4l0.2-3.3c0.1-2.2,1.9-4,4.1-4.2l2.9-0.2c0.2,0,0.4-0.2,0.4-0.5
	C35.1,72.5,34.9,72.4,34.7,72.3z" style="fill: rgb(255, 220, 109);"></path></g></g></g></g></g></g></g></g><style id="breath-8577c175-838b-4261-8804-d9e7383e34bf" data-anikit="">@keyframes breath-8577c175-838b-4261-8804-d9e7383e34bf
{
  0% {
    animation-timing-function: cubic-bezier(0.9647,0.2413,-0.0705,0.7911);
    transform: scale(0.9199999999999999);
  }
  51% {
    animation-timing-function: cubic-bezier(0.9226,0.2631,-0.0308,0.7628);
    transform: scale(1.01995);
  }
  100% {
    transform: scale(0.9199999999999999);
  }
}</style><style id="breath-97b94511-ac30-481a-9de0-6e0efc28eb8f" data-anikit="">@keyframes breath-97b94511-ac30-481a-9de0-6e0efc28eb8f
{
  0% {
    animation-timing-function: cubic-bezier(0.9647,0.2413,-0.0705,0.7911);
    transform: scale(0.9199999999999999);
  }
  51% {
    animation-timing-function: cubic-bezier(0.9226,0.2631,-0.0308,0.7628);
    transform: scale(1.01995);
  }
  100% {
    transform: scale(0.9199999999999999);
  }
}</style><style id="static-6db54556-ea59-4fe5-b79d-cf775be5df58" data-anikit=""> @keyframes static-6db54556-ea59-4fe5-b79d-cf775be5df58 { 0% { } 100% { } } </style><style id="pulse-4d5f2d60-8f6c-4f59-a9e6-ce22b61ceb3b" data-anikit="">@keyframes pulse-4d5f2d60-8f6c-4f59-a9e6-ce22b61ceb3b
{
  0% {
    animation-timing-function: cubic-bezier(0.0413,0.3905,0.5086,0.6902);
    transform: scale(1);
  }
  24.3% {
    animation-timing-function: cubic-bezier(0.2248,0.6332,0.5246,1);
    transform: scale(0.8458);
  }
  55% {
    animation-timing-function: cubic-bezier(0.3036,0.3393,0.655,0.6144);
    transform: scale(0.8022);
  }
  70.2% {
    animation-timing-function: cubic-bezier(0.4464,0.2728,0.5562,0.7288);
    transform: scale(0.8294);
  }
  82.3% {
    animation-timing-function: cubic-bezier(0.6826,0.1845,1,0.7358);
    transform: scale(0.869);
  }
  100% {
    transform: scale(1);
  }
}</style><style id="blink-da39121d-4ebf-419e-b327-6665735e64da" data-anikit="">@keyframes blink-da39121d-4ebf-419e-b327-6665735e64da {
  0% { opacity: 1; }
  49.915000000000006% { opacity: 1; }
  84.08500000000001% { opacity: 0; }
  65.83% { opacity: 0; }
  100% { opacity: 1; }
}</style><style id="pulse-4d5f2d60-8f6c-4f59-a9e6-ce22b61ceb3b" data-anikit="">@keyframes pulse-4d5f2d60-8f6c-4f59-a9e6-ce22b61ceb3b
{
  0% {
    animation-timing-function: cubic-bezier(0.0413,0.3905,0.5086,0.6902);
    transform: scale(1);
  }
  24.3% {
    animation-timing-function: cubic-bezier(0.2248,0.6332,0.5246,1);
    transform: scale(0.8458);
  }
  55% {
    animation-timing-function: cubic-bezier(0.3036,0.3393,0.655,0.6144);
    transform: scale(0.8022);
  }
  70.2% {
    animation-timing-function: cubic-bezier(0.4464,0.2728,0.5562,0.7288);
    transform: scale(0.8294);
  }
  82.3% {
    animation-timing-function: cubic-bezier(0.6826,0.1845,1,0.7358);
    transform: scale(0.869);
  }
  100% {
    transform: scale(1);
  }
}</style><style id="blink-da39121d-4ebf-419e-b327-6665735e64da" data-anikit="">@keyframes blink-da39121d-4ebf-419e-b327-6665735e64da {
  0% { opacity: 1; }
  49.915000000000006% { opacity: 1; }
  84.08500000000001% { opacity: 0; }
  65.83% { opacity: 0; }
  100% { opacity: 1; }
}</style><style id="pulse-4d5f2d60-8f6c-4f59-a9e6-ce22b61ceb3b" data-anikit="">@keyframes pulse-4d5f2d60-8f6c-4f59-a9e6-ce22b61ceb3b
{
  0% {
    animation-timing-function: cubic-bezier(0.0413,0.3905,0.5086,0.6902);
    transform: scale(1);
  }
  24.3% {
    animation-timing-function: cubic-bezier(0.2248,0.6332,0.5246,1);
    transform: scale(0.8458);
  }
  55% {
    animation-timing-function: cubic-bezier(0.3036,0.3393,0.655,0.6144);
    transform: scale(0.8022);
  }
  70.2% {
    animation-timing-function: cubic-bezier(0.4464,0.2728,0.5562,0.7288);
    transform: scale(0.8294);
  }
  82.3% {
    animation-timing-function: cubic-bezier(0.6826,0.1845,1,0.7358);
    transform: scale(0.869);
  }
  100% {
    transform: scale(1);
  }
}</style><style id="blink-da39121d-4ebf-419e-b327-6665735e64da" data-anikit="">@keyframes blink-da39121d-4ebf-419e-b327-6665735e64da {
  0% { opacity: 1; }
  49.915000000000006% { opacity: 1; }
  84.08500000000001% { opacity: 0; }
  65.83% { opacity: 0; }
  100% { opacity: 1; }
}</style><style id="pulse-4d5f2d60-8f6c-4f59-a9e6-ce22b61ceb3b" data-anikit="">@keyframes pulse-4d5f2d60-8f6c-4f59-a9e6-ce22b61ceb3b
{
  0% {
    animation-timing-function: cubic-bezier(0.0413,0.3905,0.5086,0.6902);
    transform: scale(1);
  }
  24.3% {
    animation-timing-function: cubic-bezier(0.2248,0.6332,0.5246,1);
    transform: scale(0.8458);
  }
  55% {
    animation-timing-function: cubic-bezier(0.3036,0.3393,0.655,0.6144);
    transform: scale(0.8022);
  }
  70.2% {
    animation-timing-function: cubic-bezier(0.4464,0.2728,0.5562,0.7288);
    transform: scale(0.8294);
  }
  82.3% {
    animation-timing-function: cubic-bezier(0.6826,0.1845,1,0.7358);
    transform: scale(0.869);
  }
  100% {
    transform: scale(1);
  }
}</style><style id="blink-da39121d-4ebf-419e-b327-6665735e64da" data-anikit="">@keyframes blink-da39121d-4ebf-419e-b327-6665735e64da {
  0% { opacity: 1; }
  49.915000000000006% { opacity: 1; }
  84.08500000000001% { opacity: 0; }
  65.83% { opacity: 0; }
  100% { opacity: 1; }
}</style><style id="breath-8577c175-838b-4261-8804-d9e7383e34bf" data-anikit="">@keyframes breath-8577c175-838b-4261-8804-d9e7383e34bf
{
  0% {
    animation-timing-function: cubic-bezier(0.9647,0.2413,-0.0705,0.7911);
    transform: scale(0.9199999999999999);
  }
  51% {
    animation-timing-function: cubic-bezier(0.9226,0.2631,-0.0308,0.7628);
    transform: scale(1.01995);
  }
  100% {
    transform: scale(0.9199999999999999);
  }
}</style></svg>
