<svg class="ldi-qp2r4t" width="200px"  height="200px"  xmlns="http://www.w3.org/2000/svg" xmlns:xlink="http://www.w3.org/1999/xlink" viewBox="0 0 100 100" preserveAspectRatio="xMidYMid" style="background: none;"><!--?xml version="1.0" encoding="utf-8"?--><!--Generator: Adobe Illustrator 21.0.0, SVG Export Plug-In . SVG Version: 6.00 Build 0)--><svg version="1.1" id="Layer_1" xmlns="http://www.w3.org/2000/svg" xmlns:xlink="http://www.w3.org/1999/xlink" x="0px" y="0px" viewBox="0 0 100 100" style="transform-origin: 50px 50px 0px;" xml:space="preserve"><g style="transform-origin: 50px 50px 0px;"><g style="transform-origin: 50px 50px 0px; transform: scale(0.6);"><g style="transform-origin: 50px 50px 0px;"><g><style type="text/css" class="ld ld-slide-px-rtl" style="transform-origin: 50px 50px 0px; animation-duration: 1s; animation-delay: -0.22s; animation-direction: normal;">.st0{fill:#F4E6C8;} .st1{fill:#333333;} .st2{fill:#E0E0E0;} .st3{fill:#E15C64;} .st4{fill:#C33837;} .st5{fill:#D65A62;} .st6{fill:none;} .st7{fill:#F7B26A;} .st8{fill:#F47E5F;} .st9{opacity:0.2;fill:#353035;} .st10{fill:#666766;} .st11{fill:#A0C8D7;} .st12{fill:#77A4BD;} .st13{fill:#ACBD81;} .st14{fill:#FFFFFF;} .st15{fill:#849B87;} .st16{fill:none;stroke:#E0E0E0;stroke-width:4;stroke-miterlimit:10;} .st17{fill:none;stroke:#333333;stroke-width:4;stroke-miterlimit:10;} .st18{fill:#FFFFFF;stroke:#333333;stroke-width:4;stroke-miterlimit:10;} .st19{fill:none;stroke:#000000;stroke-width:4;stroke-miterlimit:10;} .st20{fill:#FFFFFF;stroke:#000000;stroke-width:4;stroke-miterlimit:10;} .st21{fill:#010101;} .st22{fill:#A5A6A6;} .st23{fill:#666666;} .st24{fill:#F3E4C7;} .st25{fill:none;stroke:#FFFFFF;stroke-linecap:round;stroke-miterlimit:10;} .st26{fill:#353035;} .st27{fill:#B93A38;} .st28{fill:#EA7C60;} .st29{fill:#E0E0E0;stroke:#F7B26A;stroke-width:8;stroke-miterlimit:10;} .st30{fill:none;stroke:#F7B26A;stroke-width:10;stroke-linecap:round;stroke-miterlimit:10;} .st31{fill:none;stroke:#010101;stroke-width:8;stroke-miterlimit:10;} .st32{fill:#F0AF6B;stroke:#010101;stroke-width:8;stroke-miterlimit:10;} .st33{fill:#829985;} .st34{fill:#A8B980;} .st35{fill:#F0AF6B;} .st36{fill:#4A3827;} .st37{fill:#332518;} .st38{fill:#E6E6E6;}</style><g style="transform-origin: 50px 50px 0px; animation-duration: 1s; animation-delay: -0.22s; animation-direction: reverse;" class=""><g><g class="ld ld-slide-px-rtl" style="transform-origin: 50px 50px 0px; animation-duration: 1s; animation-delay: -0.207059s; animation-direction: normal;"><rect x="68.1" y="58" class="st34" width="19.1" height="3.9" fill="rgb(168, 185, 128)" style="fill: rgb(168, 185, 128);"></rect></g><g class="ld ld-slide-px-rtl" style="transform-origin: 50px 50px 0px; animation-duration: 1s; animation-delay: -0.194118s; animation-direction: normal;"><rect x="68.1" y="38.7" class="st34" width="24.4" height="3.9" fill="rgb(168, 185, 128)" style="fill: rgb(168, 185, 128);"></rect></g><g class="ld ld-slide-px-rtl" style="transform-origin: 50px 50px 0px; animation-duration: 1s; animation-delay: -0.181176s; animation-direction: normal;"><rect x="68.1" y="48.3" class="st34" width="22" height="3.9" fill="rgb(168, 185, 128)" style="fill: rgb(168, 185, 128);"></rect></g></g></g><g class="ld ld-slide-px-rtl" style="transform-origin: 50px 50px 0px; animation-duration: 1s; animation-delay: -0.168235s; animation-direction: normal;"><path class="st0" d="M13,66.8h44.1c0.1,0,0.2-0.1,0.2-0.2V45.1L37.8,57.3c-1.7,1.1-3.8,1.1-5.6,0L12.8,45.1v21.4 C12.8,66.7,12.9,66.8,13,66.8z" fill="rgb(244, 230, 200)" style="fill: rgb(244, 230, 200);"></path></g><g class="ld ld-slide-px-rtl" style="transform-origin: 50px 50px 0px; animation-duration: 1s; animation-delay: -0.155294s; animation-direction: normal;"><path class="st7" d="M15.4,40.6l17.9,11.1c1.1,0.7,2.4,0.7,3.5,0l17.9-11.1c1.7-1,2.7-2.8,2.7-4.8v-2.3c0-0.1-0.1-0.2-0.2-0.2H13 c-0.1,0-0.2,0.1-0.2,0.2v2.3C12.8,37.8,13.8,39.6,15.4,40.6z" fill="rgb(247, 178, 106)" style="fill: rgb(247, 178, 106);"></path></g><g class="ld ld-slide-px-rtl" style="transform-origin: 50px 50px 0px; animation-duration: 1s; animation-delay: -0.142353s; animation-direction: normal;"><path class="st1" d="M12,72h46.2c2.5,0,4.5-2,4.5-4.5V32.3c0-2.4-1.9-4.3-4.3-4.3H11.8c-2.4,0-4.3,1.9-4.3,4.3v35.3 C7.5,70,9.5,72,12,72z M12.8,33.5c0-0.1,0.1-0.2,0.2-0.2h44.1c0.1,0,0.2,0.1,0.2,0.2v2.3c0,2-1,3.8-2.7,4.8L36.8,51.7 c-1.1,0.7-2.4,0.7-3.5,0L15.4,40.6c-1.7-1-2.7-2.8-2.7-4.8V33.5z M12.8,45.1l19.5,12.1c1.7,1.1,3.8,1.1,5.6,0l19.5-12.1v21.4 c0,0.1-0.1,0.2-0.2,0.2H13c-0.1,0-0.2-0.1-0.2-0.2V45.1z" fill="rgb(51, 51, 51)" style="fill: rgb(51, 51, 51);"></path></g><metadata xmlns:d="https://loading.io/stock/" class="ld ld-slide-px-rtl" style="transform-origin: 50px 50px 0px; animation-duration: 1s; animation-delay: -0.129412s; animation-direction: normal;">
<d:name class="ld ld-slide-px-rtl" style="transform-origin: 50px 50px 0px; animation-duration: 1s; animation-delay: -0.116471s; animation-direction: normal;">send mail</d:name>
<d:tags class="ld ld-slide-px-rtl" style="transform-origin: 50px 50px 0px; animation-duration: 1s; animation-delay: -0.103529s; animation-direction: normal;">email,envelope,packet,message,notification,information,letter,send mail,web application</d:tags>
<d:license class="ld ld-slide-px-rtl" style="transform-origin: 50px 50px 0px; animation-duration: 1s; animation-delay: -0.0905882s; animation-direction: normal;">cc-by</d:license>
<d:slug class="ld ld-slide-px-rtl" style="transform-origin: 50px 50px 0px; animation-duration: 1s; animation-delay: -0.0776471s; animation-direction: normal;">qp2r4t</d:slug>
</metadata></g></g></g></g><style type="text/css" class="ld ld-slide-px-rtl" style="transform-origin: 50px 50px 0px; animation-duration: 1s; animation-delay: -0.0647059s; animation-direction: normal;">@keyframes ld-slide-px-rtl {
  0%, 100% {
    animation-timing-function: cubic-bezier(0.5, 0, 1, 0.5);
  }
  50% {
    animation-timing-function: cubic-bezier(0, 0.5, 0.5, 1);
  }
  0% {
    -webkit-transform: translate(0, 0);
    transform: translate(0, 0);
  }
  49.9% {
    -webkit-transform: translate(-100px, 0);
    transform: translate(-100px, 0);
  }
  50% {
    -webkit-transform: translate(100px, 0);
    transform: translate(100px, 0);
  }
  100% {
    -webkit-transform: translate(0, 0);
    transform: translate(0, 0);
  }
}
@-webkit-keyframes ld-slide-px-rtl {
  0%, 100% {
    animation-timing-function: cubic-bezier(0.5, 0, 1, 0.5);
  }
  50% {
    animation-timing-function: cubic-bezier(0, 0.5, 0.5, 1);
  }
  0% {
    -webkit-transform: translate(0, 0);
    transform: translate(0, 0);
  }
  49.9% {
    -webkit-transform: translate(-100px, 0);
    transform: translate(-100px, 0);
  }
  50% {
    -webkit-transform: translate(100px, 0);
    transform: translate(100px, 0);
  }
  100% {
    -webkit-transform: translate(0, 0);
    transform: translate(0, 0);
  }
}
.ld.ld-slide-px-rtl {
  -webkit-animation: ld-slide-px-rtl 1s infinite;
  animation: ld-slide-px-rtl 1s infinite;
}
</style></svg></svg>