<?xml version="1.0" encoding="utf-8"?>
<!-- Generator: Adobe Illustrator 21.0.0, SVG Export Plug-In . SVG Version: 6.00 Build 0)  -->
<svg version="1.1" id="Layer_1" xmlns="http://www.w3.org/2000/svg" xmlns:xlink="http://www.w3.org/1999/xlink" x="0px" y="0px"
	 viewBox="0 0 17 160" enable-background="new 0 0 17 160" xml:space="preserve">
<g>
	<g>
		<g>
			<g>
				<path fill="#55565A" d="M2.8862,65.113V64.2215H0.4614v-0.5998h2.4248v-0.8796h0.4859V65.113H2.8862z"/>
				<path fill="#55565A" d="M1.0611,67.73861v-1.0517l-0.5997-0.2v-0.6376l2.9107,1.0835v0.5559L0.4614,68.578v-0.6377
					L1.0611,67.73861z M1.547,66.84891v0.7276l1.0893-0.3659L1.547,66.84891z"/>
				<path fill="#55565A" d="M0.4614,70.36781v-0.5997h2.9107v0.5997H0.4614z"/>
				<path fill="#55565A" d="M1.301,74.07091l2.0711,0.3917v0.5977l-2.9107-0.6456V73.811l1.9471-0.47379l-1.9471-0.47369V72.2597
					l2.9107-0.6458v0.5977l-2.0671,0.3938l2.0671,0.4798v0.50771L1.301,74.07091z"/>
				<path fill="#55565A" d="M1.0611,77.82181v-1.0517l-0.5997-0.19991v-0.6376l2.9107,1.0835v0.5558l-2.9107,1.0894v-0.6377
					L1.0611,77.82181z M1.547,76.93221v0.7276l1.0893-0.3659L1.547,76.93221z"/>
				<path fill="#55565A" d="M0.4614,82.1804v-0.5997l1.9153-1.1675H0.4614v-0.5997h2.9107v0.5997l-1.9193,1.1693h1.9193v0.5979
					H0.4614z"/>
				<path fill="#55565A" d="M1.4307,87.7691c-0.313-0.0226-0.5595-0.1384-0.7394-0.34669c-0.18-0.2086-0.2699-0.48351-0.2699-0.8247
					c0-0.3733,0.1254-0.6668,0.3769-0.88071c0.251-0.2139,0.5961-0.32069,1.0344-0.32069h0.1778
					c0.2799,0,0.5266,0.0492,0.7397,0.1479c0.2134,0.0986,0.377,0.2396,0.4909,0.4227c0.1139,0.1834,0.171,0.3962,0.171,0.6387
					c0,0.3359-0.09,0.60639-0.2699,0.8118c-0.18,0.2052-0.4325,0.32381-0.7576,0.35571v-0.5998
					c0.1878-0.0145,0.3241-0.0668,0.4088-0.1568c0.0847-0.09,0.1268-0.22701,0.1268-0.4109c0-0.1999-0.0716-0.3493-0.2147-0.4488
					c-0.1436-0.0991-0.3657-0.1502-0.6669-0.15281H1.8187c-0.3143,0-0.5442,0.04761-0.6897,0.14281
					c-0.1452,0.0953-0.2178,0.2457-0.2178,0.4509c0,0.1852,0.0423,0.3236,0.127,0.41489c0.0845,0.0912,0.2155,0.1436,0.3925,0.1567
					V87.7691z"/>
				<path fill="#55565A" d="M1.527,90.1208v-0.4777H0.4614v-0.5997h2.9107v1.08141c0,0.3438-0.0768,0.609-0.2299,0.7957
					c-0.1534,0.1866-0.3699,0.2799-0.6498,0.2799c-0.1986,0-0.364-0.0431-0.4966-0.1289c-0.1326-0.08601-0.2384-0.2162-0.317-0.3909
					l-1.1893,0.6298H0.4614v-0.6437L1.527,90.1208z M2.0126,89.6431v0.4838c0,0.1505,0.0384,0.2673,0.115,0.3499
					c0.0765,0.0826,0.1823,0.1239,0.3169,0.1239c0.1374,0,0.2452-0.039,0.3239-0.1171c0.0786-0.0779,0.1178-0.1976,0.1178-0.3588
					v-0.4817H2.0126z"/>
				<path fill="#55565A" d="M1.7227,94.2877v-1.1514H0.943v1.3513H0.4614v-1.9511h2.9107v1.9472H2.8862v-1.3474H2.1925v1.1514
					H1.7227z"/>
				<path fill="#55565A" d="M1.0611,97.36281v-1.0517l-0.5997-0.1999v-0.6377l2.9107,1.0836v0.5558l-2.9107,1.0893v-0.6376
					L1.0611,97.36281z M1.547,96.47321v0.7276l1.0893-0.3659L1.547,96.47321z"/>
				<path fill="#55565A" d="M2.8862,101.30581v-0.8915H0.4614v-0.5998h2.4248v-0.8796h0.4859v2.3709H2.8862z"/>
				<path fill="#55565A" d="M0.4614,103.16541v-0.5998h2.9107v0.5998H0.4614z"/>
				<path fill="#55565A" d="M1.1829,105.6768l2.1892,0.65971v0.66769l-2.9107-1.0133V105.365l2.9107-1.00959v0.6658L1.1829,105.6768
					z"/>
				<path fill="#55565A" d="M1.7227,109.90961v-1.1514H0.943v1.35139H0.4614v-1.9511h2.9107v1.9471H2.8862v-1.3474H2.1925v1.1514
					H1.7227z"/>
				<path fill="#55565A" d="M1.4307,115.52641c-0.313-0.0226-0.5595-0.1383-0.7394-0.34669
					c-0.18-0.2086-0.2699-0.48351-0.2699-0.8246c0-0.37331,0.1254-0.6669,0.3769-0.88081
					c0.251-0.2138,0.5961-0.32059,1.0344-0.32059h0.1778c0.2799,0,0.5266,0.04919,0.7397,0.1478
					c0.2134,0.0987,0.377,0.2396,0.4909,0.4227c0.1139,0.1834,0.171,0.3962,0.171,0.6387c0,0.336-0.09,0.6064-0.2699,0.8118
					c-0.18,0.2052-0.4325,0.3239-0.7576,0.3557v-0.5998c0.1878-0.0144,0.3241-0.0668,0.4088-0.1568
					c0.0847-0.0899,0.1268-0.227,0.1268-0.4109c0-0.19991-0.0716-0.3493-0.2147-0.4487
					c-0.1436-0.09921-0.3657-0.15021-0.6669-0.1529H1.8187c-0.3143,0-0.5442,0.0476-0.6897,0.1429
					c-0.1452,0.0952-0.2178,0.2457-0.2178,0.4509c0,0.1851,0.0423,0.32349,0.127,0.41479c0.0845,0.0913,0.2155,0.1436,0.3925,0.1568
					V115.52641z"/>
				<path fill="#55565A" d="M1.8506,119.19141c-0.2862,0-0.5377-0.0508-0.7534-0.1521c-0.216-0.1013-0.3825-0.2462-0.4998-0.4348
					c-0.1174-0.1886-0.176-0.4046-0.176-0.6487c0-0.2412,0.0581-0.4564,0.1738-0.6456c0.1161-0.1894,0.2815-0.3359,0.4967-0.4398
					c0.2154-0.1039,0.463-0.1565,0.7429-0.1578h0.1439c0.2864,0,0.5387,0.0515,0.7568,0.1549
					c0.2178,0.1031,0.3851,0.2491,0.5016,0.4377c0.1166,0.1887,0.175,0.4041,0.175,0.6466c0,0.2426-0.0584,0.4583-0.175,0.6469
					c-0.1165,0.18829-0.2838,0.33429-0.5016,0.4377c-0.2181,0.1031-0.4698,0.155-0.755,0.155H1.8506z M1.9826,118.58371
					c0.3052,0,0.5372-0.05471,0.6958-0.1641c0.1586-0.1092,0.2378-0.26521,0.2378-0.4678c0-0.2012-0.0781-0.3564-0.2349-0.4656
					c-0.1565-0.1094-0.3862-0.1646-0.6887-0.166h-0.142c-0.297,0-0.5277,0.0545-0.6916,0.1639
					c-0.1639,0.1092-0.246,0.26649-0.246,0.47169c0,0.20119,0.0789,0.3559,0.237,0.46381c0.1581,0.1081,0.388,0.1628,0.6906,0.1641
					H1.9826z"/>
				<path fill="#55565A" d="M0.4614,122.8744v-0.5997l1.9153-1.1675H0.4614v-0.5998h2.9107v0.5998l-1.9193,1.1693h1.9193v0.5979
					H0.4614z"/>
				<path fill="#55565A" d="M2.8862,126.41151V125.52H0.4614v-0.59979h2.4248v-0.8796h0.4859v2.3709H2.8862z"/>
				<path fill="#55565A" d="M1.7227,129.3849v-1.1514H0.943v1.3513H0.4614v-1.9511h2.9107v1.94711H2.8862v-1.34731H2.1925v1.1514
					H1.7227z"/>
				<path fill="#55565A" d="M0.4614,133.1837v-0.59979l1.9153-1.1674H0.4614v-0.59979h2.9107v0.59979l-1.9193,1.1692h1.9193v0.59799
					H0.4614z"/>
				<path fill="#55565A" d="M2.8862,136.72081v-0.89151H0.4614v-0.59979h2.4248v-0.8797h0.4859v2.371H2.8862z"/>
				<path fill="#55565A" d="M1.0611,141.3661v-1.0517l-0.5997-0.19991v-0.6377l2.9107,1.0835v0.55591l-2.9107,1.08929v-0.6376
					L1.0611,141.3661z M1.547,140.47641v0.72758l1.0893-0.36589L1.547,140.47641z"/>
				<path fill="#55565A" d="M0.8294,145.61871c-0.1295-0.10811-0.2299-0.26071-0.301-0.45801
					c-0.0715-0.1973-0.107-0.4156-0.107-0.6555c0-0.252,0.0549-0.47299,0.1649-0.6629c0.11-0.18999,0.2694-0.3365,0.4788-0.43959
					c0.2094-0.10341,0.4551-0.15651,0.7376-0.15921h0.1978c0.2907,0,0.5422,0.04921,0.755,0.14711
					c0.2125,0.09779,0.3751,0.23909,0.4877,0.4238c0.1126,0.18459,0.1689,0.40089,0.1689,0.6487
					c0,0.34511-0.0824,0.61501-0.2468,0.80971c-0.1646,0.1944-0.4043,0.3098-0.7186,0.3459v-0.58401
					c0.1662-0.0266,0.2883-0.08549,0.3656-0.17679c0.0773-0.09131,0.1157-0.21701,0.1157-0.37691
					c0-0.2039-0.0762-0.3591-0.2296-0.4657c-0.1534-0.1068-0.3812-0.16071-0.6837-0.162h-0.186
					c-0.3051,0-0.5358,0.05811-0.6916,0.1739c-0.1559,0.116-0.2341,0.2859-0.2341,0.5098c0,0.2252,0.0482,0.38591,0.1442,0.4819
					h0.5016v-0.54581h0.4417v1.14561H0.8294z"/>
				<path fill="#55565A" d="M1.7227,148.7359v-1.1514H0.943v1.3513H0.4614v-1.9511h2.9107v1.94719H2.8862v-1.3474H2.1925v1.1514
					H1.7227z"/>
				<path fill="#55565A" d="M0.4614,152.535v-0.59979l1.9153-1.1674H0.4614V150.168h2.9107v0.59981l-1.9193,1.1693h1.9193v0.5979
					H0.4614z"/>
				<path fill="#55565A" d="M1.4307,156.22391c-0.313-0.02271-0.5595-0.1384-0.7394-0.34669
					c-0.18-0.20871-0.2699-0.48351-0.2699-0.82471c0-0.37331,0.1254-0.6669,0.3769-0.8808
					c0.251-0.21381,0.5961-0.3206,1.0344-0.3206h0.1778c0.2799,0,0.5266,0.04919,0.7397,0.1478
					c0.2134,0.09871,0.377,0.2397,0.4909,0.42281c0.1139,0.18329,0.171,0.3961,0.171,0.6387c0,0.33589-0.09,0.60629-0.2699,0.8118
					c-0.18,0.20509-0.4325,0.32379-0.7576,0.35559v-0.59979c0.1878-0.0144,0.3241-0.0668,0.4088-0.15671
					c0.0847-0.09,0.1268-0.2271,0.1268-0.41089c0-0.2-0.0716-0.34941-0.2147-0.44881c-0.1436-0.0992-0.3657-0.15019-0.6669-0.15289
					H1.8187c-0.3143,0-0.5442,0.0477-0.6897,0.1429c-0.1452,0.0952-0.2178,0.2457-0.2178,0.4509
					c0,0.1852,0.0423,0.3235,0.127,0.41479c0.0845,0.09131,0.2155,0.1436,0.3925,0.1568V156.22391z"/>
				<path fill="#55565A" d="M2.0605,158.5014l1.3116,0.60559v0.65581l-1.8551-0.9554H0.4614v-0.6098H1.517l1.8551-0.95569v0.65759
					L2.0605,158.5014z"/>
			</g>
			<g>
				<path fill="#55565A" d="M17.1149,64.93931H15.976c-0.4184,1.1415-0.9996,2.1179-1.7433,2.9286
					c0.8368,0.64581,1.8438,1.1001,3.0215,1.3636c-0.258,0.2583-0.4828,0.5733-0.6738,0.9453
					c-1.2241-0.31001-2.2701-0.8316-3.1378-1.5652c-0.8524,0.6769-1.8855,1.2061-3.0993,1.58839
					c-0.1343-0.305-0.3303-0.61209-0.5888-0.922c1.1982-0.315,2.1875-0.77219,2.9673-1.37129
					c-0.6869-0.7851-1.2499-1.7742-1.6889-2.9674H9.894v-0.9221h3.1146v-1.2473h0.9529v1.2473h3.1534V64.93931z M14.8603,64.93931
					h-2.7737c0.3408,0.8782,0.8109,1.6322,1.4101,2.2624C14.0647,66.5871,14.5195,65.83311,14.8603,64.93931z"/>
				<path fill="#55565A" d="M11.7845,77.80181l0.9373,0.31c-0.2274,0.5268-0.5033,1.0613-0.8289,1.6037v5.3768h-0.9452V81.048
					c-0.2477,0.29971-0.5089,0.57861-0.7825,0.83691c-0.1654-0.39791-0.3485-0.7308-0.55-0.9996
					c0.4337-0.3667,0.8458-0.8237,1.2357-1.37131C11.2408,78.96651,11.5521,78.3959,11.7845,77.80181z M14.7052,84.13151h1.1624
					c0.1857,0,0.3097-0.0876,0.3719-0.2633c0.0618-0.1754,0.1082-0.55,0.1393-1.1233c0.2686,0.20129,0.5577,0.33559,0.8677,0.40279
					c-0.0567,0.7026-0.173,1.18929-0.3485,1.4605c-0.1757,0.2709-0.4907,0.4065-0.9455,0.4065H14.597
					c-0.5012,0-0.8407-0.1005-1.0188-0.302c-0.1783-0.2016-0.2675-0.5812-0.2675-1.1389v-5.6712h0.9529V80.622
					c0.7387-0.42339,1.4051-0.88829,1.9992-1.39449l0.7049,0.8289c-0.6767,0.4854-1.5782,0.9943-2.7041,1.5261v1.9989
					c0,0.2325,0.0258,0.3823,0.0775,0.44959C14.3928,84.098,14.5142,84.13151,14.7052,84.13151z"/>
				<path fill="#55565A" d="M16.7197,94.39071v4.5479c0,0.2633-0.0338,0.4659-0.1008,0.6081
					c-0.067,0.1419-0.1833,0.2517-0.3485,0.3292c-0.2324,0.1032-0.7387,0.1549-1.5188,0.1549
					c-0.0358-0.2995-0.1393-0.6171-0.3097-0.9529c0.2892,0.01051,0.6611,0.0155,1.1157,0.0155c0.129,0,0.1936-0.0567,0.1936-0.17041
					v-1.42559c-0.2377,0.2582-0.4157,0.4857-0.5345,0.6817c-0.7853-0.4543-1.3533-1.16711-1.7045-2.1382
					c-0.3617,1.0228-0.9634,1.7562-1.8052,2.2002c-0.1137-0.1858-0.2583-0.3744-0.434-0.5654v2.363h-0.9606v-5.64799h2.8126
					c-0.0156-0.1446-0.0338-0.3488-0.0544-0.6121h-1.3402v-0.82121h2.1538c0.0153,0.44431,0.0617,0.9218,0.1393,1.4333H16.7197z
					 M11.273,95.31251v2.0688c0.7542-0.4134,1.2681-1.10281,1.542-2.0688H11.273z M15.7512,95.31251h-1.5108
					c0.2944,0.9299,0.7983,1.591,1.5108,1.9836V95.31251z"/>
				<path fill="#55565A" d="M13.001,110.19711h0.9529c0.4131,0.501,0.9075,0.94389,1.4837,1.3289
					c0.5756,0.3849,1.1737,0.6777,1.7934,0.8792c-0.1599,0.181-0.3538,0.4675-0.581,0.8601
					c-0.3099-0.13431-0.607-0.28149-0.8911-0.4416v2.1382h-0.9606v-0.2169h-2.6109v0.2248H11.273v-2.0765
					c-0.2944,0.1757-0.5836,0.32291-0.8674,0.4416c-0.1499-0.2994-0.3282-0.5656-0.5348-0.798
					c0.6303-0.24799,1.2318-0.5899,1.8053-1.0265C12.2494,111.074,12.691,110.63641,13.001,110.19711z M11.0329,109.05061v0.8521
					h-0.9218v-1.70451h2.8666v-0.6353h0.9682v0.6353h2.9289v1.70451h-0.9687v-0.8521H11.0329z M12.0557,109.20541l0.9065,0.31
					c-0.243,0.3461-0.5464,0.67931-0.9104,0.9994c-0.3641,0.32019-0.735,0.5888-1.1118,0.8059
					c-0.1654-0.2533-0.3825-0.5036-0.6508-0.7516C11.0691,110.21271,11.6579,109.75811,12.0557,109.20541z M12.1874,113.91611
					h2.6109v-0.8445h-2.6109V113.91611z M12.2494,112.2504h2.6109c-0.5682-0.3978-1.0151-0.7981-1.3401-1.2009
					C13.1946,111.4679,12.7709,111.8681,12.2494,112.2504z M13.9692,109.73991l0.6664-0.55
					c0.9193,0.54771,1.5855,1.0304,1.9989,1.44881l-0.7205,0.62c-0.1963-0.2171-0.4804-0.4688-0.8521-0.7556
					C14.6899,110.21661,14.3258,109.9623,13.9692,109.73991z"/>
				<path fill="#55565A" d="M16.5413,125.9183v1.3558c0,0.2015-0.0258,0.35509-0.0772,0.46089
					c-0.0518,0.106-0.1473,0.18731-0.2868,0.24421c-0.2066,0.0826-0.5577,0.12379-1.0537,0.12379
					c0.6511,0.33582,1.3587,0.57091,2.1229,0.70511c-0.2429,0.25301-0.439,0.5295-0.5888,0.82899
					c-0.9555-0.2428-1.8129-0.67149-2.5722-1.2861v1.55731h-1.0149v-1.5806c-0.7181,0.625-1.5961,1.07959-2.6342,1.36369
					c-0.1548-0.2944-0.3511-0.558-0.5888-0.79041c0.6661-0.13429,1.2871-0.34479,1.8633-0.6313
					c0.5757-0.2868,1.0292-0.61859,1.3597-0.99559v-0.5577h-1.5185v1.4101h-0.9993v-2.20821h2.5178v-0.3796h-3.0217v-0.8136h1.6815
					c-0.0775-0.2324-0.2147-0.5086-0.4107-0.8289H11.188c-0.2015,0.2944-0.421,0.55769-0.6584,0.7901
					c-0.2586-0.2065-0.5192-0.37701-0.7828-0.51131c0.5216-0.4339,0.9247-1.0122,1.2085-1.7353l0.8989,0.24
					c-0.0723,0.1757-0.137,0.3203-0.1937,0.43401h1.7198v0.6506c0.3103-0.3562,0.5606-0.7978,0.7519-1.3246l0.9297,0.2245
					c-0.057,0.1498-0.1216,0.2997-0.1937,0.4495h2.2079v0.7825h-1.294c0.1398,0.2427,0.2327,0.42609,0.2791,0.55l-0.8445,0.2633
					c-0.0569-0.2065-0.1912-0.4775-0.4028-0.81329H14.434c-0.0929,0.14979-0.2089,0.30209-0.3485,0.45689v0.372h2.851v0.8136h-2.851
					v0.3796H16.5413z M11.8386,124.72511h1.232v-0.4184h0.1317c-0.0518-0.03091-0.1317-0.0773-0.2401-0.13931
					c0.067-0.0517,0.1651-0.1422,0.2944-0.27119h-0.9764c0.1499,0.28909,0.2404,0.4751,0.2712,0.55769L11.8386,124.72511z
					 M14.0855,126.71641v0.7049c0.253,0.22211,0.5838,0.4416,0.9917,0.6585c-0.0464-0.1808-0.1499-0.4185-0.3097-0.7129
					c0.1187,0.0106,0.3434,0.0156,0.6737,0.0156c0.0829,0,0.124-0.0361,0.124-0.1084v-0.5577H14.0855z"/>
				<path fill="#55565A" d="M11.6297,140.5007v2.5334c0.2838,0.49089,0.8415,0.7516,1.6733,0.7827
					c1.3273,0.05141,2.6342,0.0282,3.9203-0.0699c-0.1395,0.2894-0.2377,0.59671-0.2944,0.922
					c-1.2861,0.06201-2.4975,0.0697-3.6335,0.02321c-0.4857-0.02051-0.8912-0.09811-1.2165-0.23241
					c-0.3252-0.13429-0.6044-0.35109-0.8368-0.6508c-0.3511,0.34081-0.6999,0.65851-1.046,0.95291l-0.4416-0.93741
					c0.3667-0.2374,0.6949-0.48041,0.984-0.7283v-1.7278H9.8476v-0.8676H11.6297z M11.8465,138.88141l-0.7748,0.59669
					c-0.2272-0.3875-0.625-0.82649-1.1932-1.3172l0.7207-0.5424C11.1775,138.08861,11.5933,138.50961,11.8465,138.88141z
					 M12.4662,143.228v-3.03729c-0.129,0.13451-0.2709,0.27119-0.426,0.41071c-0.0671-0.0928-0.1731-0.2168-0.3177-0.3719
					c-0.1445-0.15491-0.2685-0.2789-0.372-0.3718c0.3615-0.2791,0.6986-0.6315,1.0112-1.0576
					c0.3124-0.42612,0.5591-0.8766,0.74-1.35201l0.9374,0.27119c-0.0673,0.17041-0.2042,0.4492-0.4108,0.83681h0.9065
					c0.1395-0.37199,0.2506-0.7205,0.3334-1.04601l1.0379,0.20151c-0.0929,0.1963-0.2348,0.4778-0.4258,0.8445h1.4022v0.798h-1.5652
					v0.4957h1.356v0.75929h-1.356v0.52681h1.3248v0.75929h-1.3248v0.5424h1.7047v0.79039H12.4662z M14.4108,139.84981v-0.4957
					h-1.0305v0.4957H14.4108z M14.4108,141.13591v-0.52681h-1.0305v0.52681H14.4108z M14.4108,142.43761v-0.5424h-1.0305v0.5424
					H14.4108z"/>
				<path fill="#55565A" d="M11.9626,152.658l0.62,0.3564c-0.3617,1.1674-0.5915,1.8855-0.6897,2.1541
					c0.3873,0.4957,0.581,1.0278,0.581,1.59581c0,0.51149-0.1161,0.84969-0.3485,1.01509
					c-0.119,0.0826-0.2739,0.1393-0.4649,0.17039c-0.1498,0.0153-0.3176,0.0206-0.5036,0.0153
					c-0.0105-0.3047-0.0802-0.5732-0.2092-0.8056c0.0931,0.0052,0.2092,0.0079,0.3485,0.0079
					c0.0981-0.0103,0.1731-0.0338,0.2248-0.0699c0.0775-0.05679,0.1163-0.20399,0.1163-0.4417
					c0-0.49071-0.1807-0.95551-0.5424-1.3945c0.1396-0.4595,0.2894-1.03551,0.4493-1.72771h-0.6197v6.2292h-0.8134v-7.06599h1.7198
					L11.9626,152.658z M16.0069,158.85631h0.2559c0.0617,0,0.1044-0.0554,0.1276-0.1667
					c0.0233-0.11079,0.0375-0.36279,0.0428-0.75529c0.0876,0.06729,0.2089,0.13429,0.364,0.20149
					c0.1549,0.067,0.2945,0.1161,0.4185,0.147c-0.0364,0.5477-0.1151,0.9194-0.2364,1.11569
					c-0.1214,0.19621-0.3242,0.2944-0.6084,0.2944h-0.5345c-0.3355,0-0.5592-0.07629-0.67-0.2285
					c-0.1114-0.1525-0.1668-0.435-0.1668-0.8484v-1.72769h-0.5888c-0.0259,0.3875-0.0697,0.71669-0.1314,0.9879
					c-0.0623,0.27119-0.1641,0.53191-0.306,0.7825c-0.1425,0.2506-0.3398,0.4635-0.5931,0.63921
					c-0.253,0.17549-0.5682,0.32799-0.945,0.45699c-0.0364-0.10849-0.106-0.2361-0.2092-0.38339
					c-0.1034-0.1472-0.2012-0.2648-0.2944-0.35271c0.5939-0.1754,0.9967-0.4234,1.2086-0.7437
					c0.2118-0.32019,0.3382-0.78239,0.3799-1.3868h-0.8759v-0.83659h4.4242v0.83659h-1.1933v1.72
					c0,0.11369,0.0077,0.1834,0.0232,0.2092C15.914,158.8434,15.9499,158.85631,16.0069,158.85631z M12.5282,153.216h1.7665v-0.8289
					h0.9144v0.8289h1.8979v1.5573h-0.6121v0.70491H13.117v-0.69731h-0.5888V153.216z M16.2395,154.6725v-0.6508h-2.8666v0.6508
					H16.2395z"/>
			</g>
		</g>
	</g>
	<g>
		<path fill="#55565A" d="M15.885,5.69591v-4.6168c0-0.4818,0.2601-0.92611,0.6803-1.1619l0.6655-0.3735
			c0.0888-0.0498,0.1984,0.01429,0.1984,0.1162v7.4552c0,0.10189-0.1096,0.1661-0.1984,0.1162l-0.6656-0.3736
			C16.1451,6.62181,15.885,6.17761,15.885,5.69591z"/>
		<path fill="#55565A" d="M17.2406,4.02631v-1.2778c0-0.07351-0.0596-0.1332-0.1332-0.1332H0.5761
			c-0.0736,0-0.1333,0.05969-0.1333,0.1332v1.2778c0,0.0736,0.0597,0.1332,0.1333,0.1332h16.5313
			C17.181,4.15951,17.2406,4.09991,17.2406,4.02631z"/>
		<path fill="#FF3A1E" d="M17.4292,12.67791v-1.3084c0-0.0643-0.046-0.11951-0.1093-0.1311l-16.7936-3.067
			c-0.0723-0.0131-0.1284,0.0622-0.0951,0.1277L0.9156,9.252c0.1886,0.37111,0.5398,0.63261,0.9493,0.70711l11.3553,2.0645
			l-11.3553,2.0647c-0.4095,0.0744-0.7607,0.336-0.9493,0.7071l-0.4844,0.9528c-0.0333,0.0655,0.0228,0.14079,0.0951,0.1276
			l16.7936-3.0669C17.3832,12.79741,17.4292,12.74221,17.4292,12.67791z"/>
		<path fill="#55565A" d="M17.4292,51.953v-1.30839c0-0.0643-0.046-0.1195-0.1093-0.131l-16.7936-3.0671
			c-0.0723-0.0131-0.1284,0.0622-0.0951,0.1277l0.4844,0.9529c0.1886,0.3711,0.5398,0.6326,0.9493,0.7071l11.3553,2.0646
			l-11.3553,2.0646c-0.4095,0.0744-0.7607,0.336-0.9493,0.7071l-0.4844,0.9529c-0.0333,0.0654,0.0228,0.1407,0.0951,0.12759
			l16.7936-3.067C17.3832,52.07251,17.4292,52.01731,17.4292,51.953z"/>
		<path fill="#55565A" d="M0.4214,20.759v-1.27769c0-0.0736,0.0596-0.13331,0.1332-0.13331H17.296
			c0.0736,0,0.1332,0.05971,0.1332,0.13331V20.759c0,0.07361-0.0596,0.13331-0.1332,0.13331H0.5546
			C0.481,20.89231,0.4214,20.83261,0.4214,20.759z"/>
		<g>
			<path fill="#55565A" d="M0.4438,29.54071c-0.0365-2.1592,1.7878-3.9264,3.9473-3.9264h9.0898
				c2.1595,0,3.9839,1.7672,3.9474,3.9264c-0.0354,2.0981-1.7532,3.7939-3.8597,3.7939h-2.1725
				c-0.0661,0-0.109-0.0695-0.0795-0.1285l0.3395-0.6787c0.2258-0.4512,0.6871-0.7362,1.1916-0.7362h0.6538
				c1.2459,0,2.3196-0.9555,2.381-2.2c0.0656-1.33021-0.9978-2.4334-2.3139-2.4334h-9.198c-1.246,0-2.3196,0.9555-2.381,2.2
				c-0.0657,1.33019,0.9977,2.4334,2.3138,2.4334h3.7168c0.0661,0,0.109,0.0695,0.0795,0.1285l-0.3396,0.6787
				c-0.2257,0.4512-0.687,0.7362-1.1915,0.7362H4.3034C2.197,33.33461,0.4792,31.63881,0.4438,29.54071z"/>
		</g>
		<g>
			<path fill="#55565A" d="M0.4438,40.89351c-0.0365-2.1592,1.7878-3.9263,3.9473-3.9263h9.0898
				c2.1595,0,3.9839,1.7671,3.9474,3.9263c-0.0354,2.0981-1.7532,3.794-3.8597,3.794h-2.1725c-0.0661,0-0.109-0.06951-0.0795-0.1286
				l0.3395-0.6786c0.2258-0.45131,0.6871-0.73631,1.1916-0.73631h0.6538c1.2459,0,2.3196-0.95549,2.381-2.19989
				c0.0656-1.3303-0.9978-2.4334-2.3139-2.4334h-9.198c-1.246,0-2.3196,0.9555-2.381,2.1999
				C1.9239,42.04081,2.9873,43.144,4.3034,43.144h3.7168c0.0661,0,0.109,0.06951,0.0795,0.12861l-0.3396,0.6787
				c-0.2257,0.4512-0.687,0.7362-1.1915,0.7362H4.3034C2.197,44.68751,0.4792,42.99161,0.4438,40.89351z"/>
		</g>
	</g>
</g>
</svg>
