<?xml version="1.0" encoding="utf-8"?>
<svg xmlns="http://www.w3.org/2000/svg" xmlns:xlink="http://www.w3.org/1999/xlink" style="margin: auto; background: rgb(65, 54, 54); display: block; z-index: 1; position: relative; shape-rendering: auto;" width="380" height="500" preserveAspectRatio="xMidYMid" viewBox="0 0 380 500">
<g transform=""><linearGradient id="lg-0.6590519274487807" x1="0" x2="1" y1="0" y2="0">
  <stop stop-color="#ff00ff" offset="0"></stop>
  <stop stop-color="#00ffff" offset="1"></stop>
</linearGradient><path d="M 514.959 250 C 514.959 290.981 442.452 364 419.962 397.981 C 397.471 431.962 323.847 446.223 286.866 462.714 C 249.886 479.204 194.981 499.49 155 493.49 C 115.019 487.49 16.3215 511.886 -14.4141 485.15 C -45.1498 458.414 -78.2234 371.15 -89.4686 332.169 C -100.714 293.188 -116.755 202.226 -105.51 163.245 C -94.2643 124.264 -32.1117 56.3788 -1.37599 29.6431 C 29.3597 2.9074 122.019 63.7548 162 57.7548 C 201.981 51.7548 263.586 -9.64309 300.567 6.84737 C 337.548 23.3378 400.242 66.9456 421.978 100.926 C 443.714 134.907 514.959 209.019 514.959 250" fill="url(#lg-0.6590519274487807)" opacity="0.4">
  <animate attributeName="d" dur="10s" repeatCount="indefinite" keyTimes="0;0.3333333333333333;0.6666666666666666;1" calcmod="spline" keySplines="0.3 0.1 0.7 0.9;0.3 0.1 0.7 0.9;0.3 0.1 0.7 0.9" begin="-6.666666666666667s" values="M 565 250 C 565 296 502 396 477 435 C 452 474 354 498 312 517 C 270 536 207 459 161 452 C 115 445 -7 548 -42 518 C -77 488 -160 401 -173 357 C -186 313 -157 196 -144 152 C -131 108 -25 73 10 43 C 45 13 108 9 154 2 C 200 -5 269 -34 311 -15 C 353 4 423 45 448 84 C 473 123 565 204 565 250;M 561 250 C 561 294 450 364 426 401 C 402 438 348 490 308 508 C 268 526 198 501 155 495 C 112 489 5 530 -28 501 C -61 472 -122 387 -134 345 C -146 303 -116 206 -104 164 C -92 122 -54 36 -21 7 C 12 -22 119 63 162 57 C 205 51 250 13 290 31 C 330 49 441 36 465 73 C 489 110 561 206 561 250;M 500 250 C 500 290 440 364 418 397 C 396 430 316 432 280 448 C 244 464 194 499 155 493 C 116 487 20 506 -10 480 C -40 454 -64 366 -75 328 C -86 290 -117 201 -106 163 C -95 125 -25 63 5 37 C 35 11 123 64 162 58 C 201 52 268 -17 304 -1 C 340 15 387 77 408 110 C 429 143 500 210 500 250;M 565 250 C 565 296 502 396 477 435 C 452 474 354 498 312 517 C 270 536 207 459 161 452 C 115 445 -7 548 -42 518 C -77 488 -160 401 -173 357 C -186 313 -157 196 -144 152 C -131 108 -25 73 10 43 C 45 13 108 9 154 2 C 200 -5 269 -34 311 -15 C 353 4 423 45 448 84 C 473 123 565 204 565 250"></animate>
</path><path d="M 411.471 250 C 411.471 281.245 390.169 341.452 373.169 367.698 C 356.169 393.943 303.793 424.36 275.548 437.36 C 247.302 450.36 201.51 393.414 170.264 389.169 C 139.019 384.924 60.2643 446.471 37.0191 426.226 C 13.7738 405.981 -26.7738 346.755 -35.7738 316.51 C -44.7738 286.264 -66.9809 207 -57.9809 176.755 C -48.9809 146.51 18.5668 99.5668 41.812 79.3215 C 65.0572 59.0763 137.755 106 169 101.755 C 200.245 97.5095 244.567 55.6212 272.812 68.6212 C 301.057 81.6212 372.169 96.0572 389.169 122.302 C 406.169 148.548 411.471 218.755 411.471 250" fill="url(#lg-0.6590519274487807)" opacity="0.4">
  <animate attributeName="d" dur="10s" repeatCount="indefinite" keyTimes="0;0.3333333333333333;0.6666666666666666;1" calcmod="spline" keySplines="0.3 0.1 0.7 0.9;0.3 0.1 0.7 0.9;0.3 0.1 0.7 0.9" begin="-6.666666666666667s" values="M 531 250 C 531 296 481 382 456 421 C 431 460 356 502 314 521 C 272 540 200 509 154 503 C 108 497 2 537 -33 507 C -68 477 -132 392 -145 348 C -158 304 -176 190 -163 146 C -150 102 -64 27 -29 -3 C 6 -33 113 38 159 32 C 205 26 258 -11 300 8 C 342 27 422 46 447 85 C 472 124 531 204 531 250;M 416 250 C 416 282 403 349 386 376 C 369 403 297 407 268 420 C 239 433 200 407 168 402 C 136 397 58 451 34 430 C 10 409 -23 346 -32 315 C -41 284 -70 207 -61 176 C -52 145 8 89 32 68 C 56 47 137 106 169 101 C 201 96 234 76 263 89 C 292 102 385 87 402 114 C 419 141 416 218 416 250;M 410 250 C 410 281 386 339 369 365 C 352 391 306 430 278 443 C 250 456 202 389 171 385 C 140 381 61 445 38 425 C 15 405 -28 347 -37 317 C -46 287 -66 207 -57 177 C -48 147 22 103 45 83 C 68 63 138 106 169 102 C 200 98 248 49 276 62 C 304 75 368 99 385 125 C 402 151 410 219 410 250;M 531 250 C 531 296 481 382 456 421 C 431 460 356 502 314 521 C 272 540 200 509 154 503 C 108 497 2 537 -33 507 C -68 477 -132 392 -145 348 C -158 304 -176 190 -163 146 C -150 102 -64 27 -29 -3 C 6 -33 113 38 159 32 C 205 26 258 -11 300 8 C 342 27 422 46 447 85 C 472 124 531 204 531 250"></animate>
</path><path d="M 458.52 250 C 458.52 284.169 411.504 352.035 393.052 380.714 C 374.599 409.392 304.449 418.542 273.526 432.504 C 242.602 446.466 195.207 449.676 161.793 444.94 C 128.379 440.204 52.06 460.259 26.6268 438.316 C 1.19359 416.373 -29.9372 349.242 -39.1633 317.074 C -48.3895 284.905 -94.9916 201.134 -85.7655 168.965 C -76.5393 136.796 10.3625 94.2862 35.7957 72.3434 C 61.2289 50.4007 129.134 64.5696 162.548 59.8339 C 195.962 55.0982 247.771 41.7059 278.695 55.6678 C 309.618 69.6296 372.635 92.2508 391.087 120.929 C 409.539 149.608 458.52 215.831 458.52 250" fill="url(#lg-0.6590519274487807)" opacity="0.4">
  <animate attributeName="d" dur="10s" repeatCount="indefinite" keyTimes="0;0.3333333333333333;0.6666666666666666;1" calcmod="spline" keySplines="0.3 0.1 0.7 0.9;0.3 0.1 0.7 0.9;0.3 0.1 0.7 0.9" begin="-6.666666666666667s" values="M 445 250 C 445 284 404 347 386 376 C 368 405 310 430 279 444 C 248 458 201 417 167 412 C 133 407 87 421 61 399 C 35 377 -60 359 -70 326 C -80 293 -47 216 -37 183 C -27 150 24 110 50 88 C 76 66 134 104 168 99 C 202 94 242 54 273 68 C 304 82 397 77 415 105 C 433 133 445 216 445 250;M 574 250 C 574 297 490 386 464 426 C 438 466 352 491 309 511 C 266 531 202 501 155 494 C 108 487 3 538 -33 507 C -69 476 -119 390 -132 345 C -145 300 -215 180 -202 135 C -189 90 -47 49 -11 18 C 25 -13 108 14 155 7 C 202 0 284 -70 327 -50 C 370 -30 470 13 496 53 C 522 93 574 203 574 250;M 421 250 C 421 280 386 341 370 366 C 354 391 289 395 262 407 C 235 419 193 433 164 429 C 135 425 68 435 46 416 C 24 397 -1 336 -9 308 C -17 280 -56 208 -48 180 C -40 152 29 109 51 90 C 73 71 136 81 165 77 C 194 73 236 78 263 90 C 290 102 341 118 357 143 C 373 168 421 220 421 250;M 445 250 C 445 284 404 347 386 376 C 368 405 310 430 279 444 C 248 458 201 417 167 412 C 133 407 87 421 61 399 C 35 377 -60 359 -70 326 C -80 293 -47 216 -37 183 C -27 150 24 110 50 88 C 76 66 134 104 168 99 C 202 94 242 54 273 68 C 304 82 397 77 415 105 C 433 133 445 216 445 250"></animate>
</path></g>
<style type="text/css">.lded > .content, .lded > .content > .inner { height: 100%; }
.lded > .content > .inner > .viewer { width: 100%; height: 100%; max-width: 100%; }
.lded > .content > .inner > .panel {
  position: absolute;
  bottom: 50px;
  left: 0;
  right: 0;
  opacity: 0.3;
}
.lded > .content > .inner > .panel:hover { opacity: 1; }
.lded > .content > .inner > .ctrl {
  position: absolute;
  bottom: 13px;
  left: 0;
  right: 0;
  margin: auto;
}
.lded > .content > .inner > .ctrl:hover {
  z-index: 10;
}
#editor > .inner > .title {
  position: absolute;
  bottom: 195px;
  left: 0;
  right: 0;
  z-index: 11;
}
#editor > .inner > .title > a:first-child {
  margin-left: 0!important;
#editor .lded .viewer { border-radius: 0 }</style></svg>