<?xml version="1.0" encoding="utf-8"?>
<svg xmlns="http://www.w3.org/2000/svg" xmlns:xlink="http://www.w3.org/1999/xlink" style="margin: auto; background: rgb(255, 255, 255); display: block; z-index: 1; position: relative; shape-rendering: auto;" width="1440" height="793" preserveAspectRatio="xMidYMid" viewBox="0 0 1440 793">
<g transform=""><g transform="translate(1297.343152917758,-145.66130789552142) scale(100)" opacity="0.53">
  <path d="M7.920000000000001 0 C7.920000000000001 2.6136 6.22344399533101 5.552121197972754 3.9600000000000013 6.858921197972754 S-1.6965560046689898 8.165721197972754 -3.9599999999999986 6.858921197972755 S-7.920000000000001 2.613600000000001 -7.920000000000001 9.699202649247038e-16 S-6.223443995331012 -5.5521211979727525 -3.960000000000004 -6.858921197972753 S1.6965560046689854 -8.165721197972756 3.959999999999995 -6.858921197972758 S7.92 -2.6136000000000017 7.920000000000001 -1.9398405298494075e-15" fill="#000000" stroke-width="0" transform="rotate(95.0019)">
    <animateTransform attributeName="transform" type="rotate" dur="10s" repeatCount="indefinite" values="0;120"></animateTransform>
  </path>
</g><g transform="translate(1412.8117835013095,-254.09356947462572) scale(100)" opacity="0.53">
  <path d="M9.504000000000001 0 C9.504000000000001 3.13632 7.468132794397212 6.662545437567305 4.752000000000002 8.230705437567305 S-2.035867205602788 9.798865437567306 -4.751999999999999 8.230705437567307 S-9.504000000000001 3.1363200000000013 -9.504000000000001 1.1639043179096447e-15 S-7.468132794397215 -6.662545437567302 -4.752000000000005 -8.230705437567304 S2.0358672056027824 -9.798865437567308 4.7519999999999945 -8.230705437567309 S9.504000000000001 -3.136320000000002 9.504000000000001 -2.3278086358192893e-15" fill="#000000" stroke-width="0" transform="rotate(70.0038)">
    <animateTransform attributeName="transform" type="rotate" dur="5s" repeatCount="indefinite" values="0;120"></animateTransform>
  </path>
</g></g>
</svg>