<?xml version="1.0" encoding="utf-8"?>
<svg xmlns="http://www.w3.org/2000/svg" xmlns:xlink="http://www.w3.org/1999/xlink" style="margin: auto; background: rgb(255, 255, 255); display: block; z-index: 1; position: relative; shape-rendering: auto;" width="1440" height="793" preserveAspectRatio="xMidYMid" viewBox="0 0 1440 793">
<g transform=""><g transform="translate(1434.5976161732215,-89.14003846424083) scale(100)" opacity="0.4">
  <path d="M8.553600000000001 0 C8.553600000000001 2.16 7.697847262709232 4.643145967983345 6.170496615346289 6.170496615346288 S2.1600000000000006 8.553600000000001 5.237569430593401e-16 8.553600000000001 S-4.643145967983345 7.697847262709232 -6.170496615346288 6.170496615346289 S-8.553600000000001 2.160000000000001 -8.553600000000001 1.0475138861186801e-15 S-7.697847262709232 -4.643145967983345 -6.1704966153462895 -6.170496615346288 S-2.160000000000002 -8.553600000000001 -1.5712708291780202e-15 -8.553600000000001 S4.643145967983344 -7.697847262709232 6.170496615346287 -6.1704966153462895 S8.553600000000001 -2.1600000000000024 8.553600000000001 -2.0950277722373603e-15" fill="#000000" stroke-width="0" transform="rotate(25.6505)">
    <animateTransform attributeName="transform" type="rotate" dur="10s" repeatCount="indefinite" values="0;90"></animateTransform>
  </path>
</g><g transform="translate(1577.5171394078657,-186.26804615708897) scale(100)" opacity="0.4">
  <path d="M10.26432 0 C10.26432 2.592 9.23741671525108 5.571775161580014 7.4045959384155475 7.404595938415546 S2.5920000000000005 10.26432 6.28508331671208e-16 10.26432 S-5.571775161580014 9.23741671525108 -7.404595938415546 7.4045959384155475 S-10.26432 2.5920000000000014 -10.26432 1.257016663342416e-15 S-9.23741671525108 -5.571775161580014 -7.404595938415548 -7.404595938415546 S-2.592000000000002 -10.26432 -1.885524995013624e-15 -10.26432 S5.571775161580013 -9.23741671525108 7.404595938415545 -7.404595938415548 S10.26432 -2.5920000000000027 10.26432 -2.514033326684832e-15" fill="#373737" stroke-width="0" transform="rotate(51.301)">
    <animateTransform attributeName="transform" type="rotate" dur="5s" repeatCount="indefinite" values="0;90"></animateTransform>
  </path>
</g></g>
</svg>