<?xml version="1.0" encoding="utf-8"?>
<svg xmlns="http://www.w3.org/2000/svg" xmlns:xlink="http://www.w3.org/1999/xlink" style="margin: auto; background: rgb(56, 99, 129); display: block; z-index: 1; position: relative; shape-rendering: auto;" width="1440" height="744" preserveAspectRatio="xMidYMid" viewBox="0 0 1440 744">
<g transform=""><linearGradient id="lg-0.8129227012581053" x1="0" x2="1" y1="0" y2="0">
  <stop stop-color="#ffffff" offset="0"></stop>
  <stop stop-color="#d4ebfd" offset="1"></stop>
</linearGradient><path d="M 1214 372 C 1214 522.622 998.849 744.489 855.886 790.81 C 712.924 837.131 418.321 777.622 329.679 655.491 C 241.038 533.359 252.754 219.056 341.396 96.9243 C 430.037 -25.2077 711.622 -89.2255 854.585 -42.9047 C 997.547 3.41596 1214 221.378 1214 372" fill="url(#lg-0.8129227012581053)" opacity="0.74">
  <animate attributeName="d" dur="10s" repeatCount="indefinite" keyTimes="0;0.3333333333333333;0.6666666666666666;1" calcmod="spline" keySplines="0.3 0.1 0.7 0.9;0.3 0.1 0.7 0.9;0.3 0.1 0.7 0.9" begin="-10s" values="M 1214 372 C 1214 511 959 654 826 697 C 693 740 415 766 333 653 C 251 540 232 190 314 77 C 396 -36 700 -17 833 26 C 966 69 1214 233 1214 372;M 1214 372 C 1214 525 1007 763 862 810 C 717 857 419 780 329 656 C 239 532 257 225 347 101 C 437 -23 714 -104 859 -57 C 1004 -10 1214 219 1214 372;M 1246 372 C 1246 522 1004 758 861 805 C 718 852 383 803 295 681 C 207 559 269 230 357 108 C 445 -14 692 -28 835 19 C 978 66 1246 222 1246 372;M 1214 372 C 1214 511 959 654 826 697 C 693 740 415 766 333 653 C 251 540 232 190 314 77 C 396 -36 700 -17 833 26 C 966 69 1214 233 1214 372"></animate>
</path><path d="M 1182.43 372 C 1182.43 514.491 956.302 636.113 820.811 680.773 C 685.321 725.434 404.773 777.528 321.113 662.038 C 237.453 546.547 238.038 198.472 321.699 82.8118 C 405.359 -32.8485 689 5.86805 824.491 49.6982 C 959.981 93.5284 1182.43 229.509 1182.43 372" fill="url(#lg-0.8129227012581053)" opacity="0.74">
  <animate attributeName="d" dur="10s" repeatCount="indefinite" keyTimes="0;0.3333333333333333;0.6666666666666666;1" calcmod="spline" keySplines="0.3 0.1 0.7 0.9;0.3 0.1 0.7 0.9;0.3 0.1 0.7 0.9" begin="-10s" values="M 1253 372 C 1253 512 948 622 815 665 C 682 708 389 785 307 672 C 225 559 292 235 374 121 C 456 7 689 15 822 58 C 955 101 1253 232 1253 372;M 1168 372 C 1168 515 958 639 822 684 C 686 729 408 776 324 660 C 240 544 227 191 311 75 C 395 -41 689 4 825 48 C 961 92 1168 229 1168 372;M 1266 372 C 1266 524 969 649 825 696 C 681 743 388 801 299 678 C 210 555 174 163 263 40 C 352 -83 703 -67 847 -20 C 991 27 1266 220 1266 372;M 1253 372 C 1253 512 948 622 815 665 C 682 708 389 785 307 672 C 225 559 292 235 374 121 C 456 7 689 15 822 58 C 955 101 1253 232 1253 372"></animate>
</path></g>
</svg>